<svg width="85" height="85" viewBox="0 0 85 85" fill="none" xmlns="http://www.w3.org/2000/svg">
<g clip-path="url(#clip0)">
<path d="M24.82 8.5H22.1V5.78H24.82V8.5ZM30.26 5.78H27.54V8.5H30.26V5.78ZM35.7 5.78H32.98V8.5H35.7V5.78ZM60.18 19.38V41.14C60.18 42.6401 58.9601 43.86 57.46 43.86H27.54C26.0399 43.86 24.82 42.6401 24.82 41.14V19.38C24.82 17.8799 26.0399 16.66 27.54 16.66H57.46C58.9601 16.66 60.18 17.8799 60.18 19.38ZM27.54 41.14H33.6314L41.5752 29.7922C42.5625 28.3818 44.1782 27.54 45.9 27.54C47.6217 27.54 49.2374 28.3818 50.2248 29.7922L57.4613 40.1309L57.46 19.38H27.54V41.14ZM47.9957 31.3507C47.517 30.668 46.7337 30.26 45.9 30.26C45.0663 30.26 44.2829 30.668 43.8042 31.3507L36.9525 41.14H54.8488L47.9957 31.3507ZM46.58 49.3V52.02C46.58 53.5201 45.3601 54.74 43.86 54.74H41.14C39.6399 54.74 38.42 53.5201 38.42 52.02V49.3C38.42 47.7999 39.6399 46.58 41.14 46.58H43.86C45.3601 46.58 46.58 47.7999 46.58 49.3ZM43.8613 52.02L43.86 49.3H41.14V52.02H43.8613ZM57.46 49.3V52.02C57.46 53.5201 56.2401 54.74 54.74 54.74H52.02C50.5199 54.74 49.3 53.5201 49.3 52.02V49.3C49.3 47.7999 50.5199 46.58 52.02 46.58H54.74C56.2401 46.58 57.46 47.7999 57.46 49.3ZM54.7413 52.02L54.74 49.3H52.02V52.02H54.7413ZM35.7 49.3V52.02C35.7 53.5201 34.4801 54.74 32.98 54.74H30.26C28.7599 54.74 27.54 53.5201 27.54 52.02V49.3C27.54 47.7999 28.7599 46.58 30.26 46.58H32.98C34.4801 46.58 35.7 47.7999 35.7 49.3ZM32.9813 52.02L32.98 49.3H30.26V52.02H32.9813ZM30.26 26.18C30.26 23.9306 32.0905 22.1 34.34 22.1C36.5894 22.1 38.42 23.9306 38.42 26.18C38.42 28.4294 36.5894 30.26 34.34 30.26C32.0905 30.26 30.26 28.4294 30.26 26.18ZM32.98 26.18C32.98 26.9294 33.5893 27.54 34.34 27.54C35.0907 27.54 35.7 26.9294 35.7 26.18C35.7 25.4306 35.0907 24.82 34.34 24.82C33.5893 24.82 32.98 25.4306 32.98 26.18ZM11.22 49.3L-1.52588e-05 34.34L11.22 19.38V27.54H16.66V4.42C16.66 2.17056 18.4905 0.339996 20.74 0.339996H64.26C66.5094 0.339996 68.34 2.17056 68.34 4.42V27.54H73.78V19.38L85 34.34L73.78 49.3V41.14H68.34V57.5688C72.9449 58.2325 76.5 62.1942 76.5 66.98V75.14C76.5 80.3896 72.2282 84.66 66.98 84.66H45.22C44.2585 84.66 43.3309 84.5145 42.4551 84.2479C41.5861 84.5022 40.6939 84.66 39.78 84.66H18.02C12.7717 84.66 8.49998 80.3896 8.49998 75.14V66.98C8.49998 62.1942 12.055 58.2325 16.66 57.5688V41.14H11.22V49.3ZM65.62 57.46V13.94H19.38V57.46H39.78C40.7415 57.46 41.669 57.6055 42.5449 57.8721C43.4139 57.6178 44.3061 57.46 45.22 57.46H65.62ZM38.5709 81.94C37.7726 81.1593 37.1185 80.2386 36.6329 79.22H18.02C15.7705 79.22 13.94 77.3894 13.94 75.14V66.98C13.94 64.7306 15.7705 62.9 18.02 62.9H39.78C42.0294 62.9 43.86 64.7306 43.86 66.98V75.14C43.86 75.8894 44.4693 76.5 45.22 76.5H46.429C46.5201 76.0539 46.58 75.601 46.58 75.14V66.98C46.58 63.2305 43.5295 60.18 39.78 60.18H18.02C14.2705 60.18 11.22 63.2305 11.22 66.98V75.14C11.22 78.8895 14.2705 81.94 18.02 81.94H38.5709ZM49.3 66.98V75.14C49.3 75.5983 49.2497 76.0512 49.1844 76.5H66.98C67.7307 76.5 68.34 75.8894 68.34 75.14V66.98C68.34 66.2306 67.7307 65.62 66.98 65.62H49.1912C49.2551 66.0661 49.3 66.5176 49.3 66.98ZM35.7 75.14V66.98C35.7 66.5203 35.7503 66.0688 35.8156 65.62H18.02C17.2693 65.62 16.66 66.2306 16.66 66.98V75.14C16.66 75.8894 17.2693 76.5 18.02 76.5H35.8088C35.7449 76.0539 35.7 75.6024 35.7 75.14ZM66.98 60.18H46.429C47.2273 60.9606 47.8815 61.8814 48.367 62.9H66.98C69.2294 62.9 71.06 64.7306 71.06 66.98V75.14C71.06 77.3894 69.2294 79.22 66.98 79.22H45.22C42.9705 79.22 41.14 77.3894 41.14 75.14V66.98C41.14 66.2306 40.5307 65.62 39.78 65.62H38.5709C38.4798 66.0661 38.42 66.5176 38.42 66.98V75.14C38.42 78.8895 41.4705 81.94 45.22 81.94H66.98C70.7295 81.94 73.78 78.8895 73.78 75.14V66.98C73.78 63.2305 70.7295 60.18 66.98 60.18ZM68.34 30.26V38.42H76.5V41.14L81.6 34.34L76.5 27.54V30.26H68.34ZM19.38 4.42V11.22H65.62V4.42C65.62 3.67064 65.0107 3.06 64.26 3.06H20.74C19.9893 3.06 19.38 3.67064 19.38 4.42ZM8.49998 38.42H16.66V30.26H8.49998V27.54L3.39998 34.34L8.49998 41.14V38.42Z" fill="url(#paint0_linear)"/>
</g>
<defs>
<linearGradient id="paint0_linear" x1="42.5" y1="84.66" x2="42.5" y2="0.339996" gradientUnits="userSpaceOnUse">
<stop stop-color="#107EFF"/>
<stop offset="1" stop-color="#8F16FF"/>
</linearGradient>
<clipPath id="clip0">
<rect width="85" height="85" fill="white"/>
</clipPath>
</defs>
</svg>
