<svg width="85" height="85" viewBox="0 0 85 85" fill="none" xmlns="http://www.w3.org/2000/svg">
<path d="M79.5161 67.1774C79.5161 67.9342 78.9019 68.5484 78.1452 68.5484C77.3884 68.5484 76.7742 67.9342 76.7742 67.1774C76.7742 66.4206 77.3884 65.8064 78.1452 65.8064C78.9019 65.8064 79.5161 66.4206 79.5161 67.1774ZM72.6613 65.8064C71.9045 65.8064 71.2903 66.4206 71.2903 67.1774C71.2903 67.9342 71.9045 68.5484 72.6613 68.5484C73.4181 68.5484 74.0323 67.9342 74.0323 67.1774C74.0323 66.4206 73.4181 65.8064 72.6613 65.8064ZM67.1774 65.8064C66.4206 65.8064 65.8064 66.4206 65.8064 67.1774C65.8064 67.9342 66.4206 68.5484 67.1774 68.5484C67.9342 68.5484 68.5484 67.9342 68.5484 67.1774C68.5484 66.4206 67.9342 65.8064 67.1774 65.8064ZM28.7903 41.129H31.5323C31.5323 40.3736 32.1478 39.7581 32.9032 39.7581C33.6586 39.7581 34.2742 40.3736 34.2742 41.129H37.0161C37.0161 38.8615 35.1708 37.0161 32.9032 37.0161C30.6356 37.0161 28.7903 38.8615 28.7903 41.129ZM9.59677 41.129H12.3387C12.3387 40.3736 12.9543 39.7581 13.7097 39.7581C14.4651 39.7581 15.0806 40.3736 15.0806 41.129H17.8226C17.8226 38.8615 15.9773 37.0161 13.7097 37.0161C11.4421 37.0161 9.59677 38.8615 9.59677 41.129ZM23.3065 57.5806C27.0862 57.5806 30.1613 54.5056 30.1613 50.7258H27.4194C27.4194 52.9934 25.574 54.8387 23.3065 54.8387C21.0389 54.8387 19.1935 52.9934 19.1935 50.7258H16.4516C16.4516 54.5056 19.5267 57.5806 23.3065 57.5806ZM0 53.4677V31.5323C0 18.6808 10.455 8.22581 23.3065 8.22581C33.7724 8.22581 42.6467 15.1615 45.5806 24.6774H78.1452C81.9249 24.6774 85 27.7525 85 31.5323V67.1774C85 70.9572 81.9249 74.0323 78.1452 74.0323H64.4355V76.7742H68.5484C70.816 76.7742 72.6613 78.6195 72.6613 80.8871V85H13.7097V72.8436C5.59218 69.966 0 62.1528 0 53.4677ZM18.1352 27.4468L13.0571 28.0555C10.3028 28.3873 8.22581 30.7275 8.22581 33.501V33.6436C9.68315 32.3356 11.6011 31.5323 13.7097 31.5323C17.7773 31.5323 21.1554 34.5031 21.8121 38.3871H24.8022C25.4575 34.5031 28.8356 31.5323 32.9046 31.5323C35.0131 31.5323 36.9311 32.3356 38.3885 33.6436V28.7903H25.2313C22.7594 28.7903 20.3671 28.3105 18.1352 27.4468ZM32.9032 34.2742C29.8789 34.2742 27.4194 36.7337 27.4194 39.7581C27.4194 42.7824 29.8789 45.2419 32.9032 45.2419C35.9276 45.2419 38.3871 42.7824 38.3871 39.7581C38.3871 36.7337 35.9276 34.2742 32.9032 34.2742ZM13.7097 34.2742C10.6853 34.2742 8.22581 36.7337 8.22581 39.7581C8.22581 42.7824 10.6853 45.2419 13.7097 45.2419C16.734 45.2419 19.1935 42.7824 19.1935 39.7581C19.1935 36.7337 16.734 34.2742 13.7097 34.2742ZM8.22581 47.9839C8.22581 54.7825 13.7535 60.3144 20.5508 60.3226C20.5549 60.3226 20.559 60.3212 20.5645 60.3212C20.5714 60.3212 20.5782 60.3226 20.5837 60.3226H22.5428H26.0484C32.8511 60.3226 38.3871 54.7866 38.3871 47.9839V45.8726C36.9298 47.1805 35.0118 47.9839 32.9032 47.9839C28.8356 47.9839 25.4575 45.013 24.8008 41.129H21.8121C21.1568 45.013 17.7787 47.9839 13.7097 47.9839C11.6011 47.9839 9.68315 47.1805 8.22581 45.8726V47.9839ZM41.129 74.0323H39.7581H38.1348C38.2884 74.4627 38.3871 74.9206 38.3871 75.4032V76.7742H43.871C43.871 75.262 42.6412 74.0323 41.129 74.0323ZM26.6091 64.0132C27.1081 64.9633 27.4194 66.0299 27.4194 67.176C27.4194 68.2756 27.8471 69.3079 28.6231 70.0852C29.4004 70.8626 30.4327 71.2903 31.5323 71.2903H32.7977C32.3302 68.2413 30.3299 65.6077 27.4344 64.3656L26.6091 64.0132ZM20.5508 63.0645C18.2887 63.0714 16.4516 64.9126 16.4516 67.176C16.4516 75.491 23.2173 82.2581 31.5323 82.2581H34.2742C35.031 82.2581 35.6452 81.6425 35.6452 80.8871V75.4032C35.6452 74.6478 35.0296 74.0323 34.2742 74.0323H31.5323C29.7006 74.0323 27.9801 73.3194 26.6845 72.0238C25.3903 70.7282 24.6774 69.0063 24.6774 67.176C24.6774 64.9153 22.8431 63.0755 20.5851 63.0645H20.5645C20.5604 63.0645 20.5563 63.0645 20.5508 63.0645ZM16.4516 82.2581H22.0794C19.8064 80.8281 17.8815 78.9033 16.4516 76.6302V82.2581ZM68.5484 79.5161H38.3871V80.8871C38.3871 81.3697 38.2884 81.8276 38.1348 82.2581H69.9194V80.8871C69.9194 80.1317 69.3038 79.5161 68.5484 79.5161ZM61.6936 74.0323H45.8506C46.3223 74.8425 46.6129 75.7706 46.6129 76.7742H61.6936V74.0323ZM82.2581 67.1774V63.0645H44.2151C42.4219 66.4549 39.695 69.3298 36.2964 71.2903H39.7581H41.129H78.1452C80.4127 71.2903 82.2581 69.445 82.2581 67.1774ZM46.2277 27.4194C46.4662 28.7574 46.6129 30.127 46.6129 31.5323V53.4677C46.6129 55.8409 46.1906 58.1523 45.4188 60.3226H82.2581V31.5323C82.2581 29.2647 80.4127 27.4194 78.1452 27.4194H46.2277ZM2.74194 53.4677C2.74194 60.6653 7.1729 67.1733 13.7097 69.9111V67.176V67.1747C13.7097 65.254 14.509 63.521 15.7853 62.2762C9.8079 60.2705 5.48387 54.6276 5.48387 47.9839V33.501C5.48387 29.3401 8.59871 25.829 12.7308 25.3341L13.9373 25.1902C12.4443 24.1359 11.0733 22.8897 9.89839 21.4214L12.0398 19.709C15.2616 23.7369 20.071 26.0484 25.2299 26.0484H38.239C37.6701 23.4326 35.5108 21.3432 32.7771 20.9525L29.9666 20.5508L30.3546 17.8377L33.1651 18.2394C37.7057 18.8865 41.129 22.8335 41.129 27.4194V28.7903V47.9839C41.129 54.9744 36.3402 60.8531 29.8761 62.5531C32.3082 63.994 34.1028 66.2452 34.9981 68.8733C40.434 65.7064 43.871 59.829 43.871 53.4677V31.5323C43.871 20.193 34.6457 10.9677 23.3065 10.9677C11.9672 10.9677 2.74194 20.193 2.74194 31.5323V53.4677ZM47.9839 18.626V4.1129C47.9839 1.84532 49.8292 0 52.0968 0H76.7742C79.0418 0 80.8871 1.84532 80.8871 4.1129V15.0806C80.8871 17.3482 79.0418 19.1935 76.7742 19.1935H55.4063L53.6336 20.9662C53.0085 21.5914 52.1777 21.9355 51.2934 21.9355C49.4686 21.9355 47.9839 20.4507 47.9839 18.626ZM50.7258 18.626C50.7258 19.0894 51.3688 19.354 51.6951 19.0277L54.2711 16.4516H76.7742C77.5296 16.4516 78.1452 15.836 78.1452 15.0806V4.1129C78.1452 3.3575 77.5296 2.74194 76.7742 2.74194H52.0968C51.3414 2.74194 50.7258 3.3575 50.7258 4.1129V18.626ZM56.2097 13.7097H58.9516V10.9677H61.6936V8.22581H58.9516V5.48387H56.2097V8.22581H53.4677V10.9677H56.2097V13.7097ZM75.4032 5.48387H64.4355V8.22581H75.4032V5.48387ZM75.4032 10.9677H64.4355V13.7097H75.4032V10.9677ZM63.0645 43.871H49.3548V30.1613H63.0645V43.871ZM60.3226 32.9032H52.0968V41.129H60.3226V32.9032ZM79.5161 43.871H65.8064V30.1613H79.5161V43.871ZM76.7742 32.9032H68.5484V41.129H76.7742V32.9032ZM79.5161 57.5806H65.8064V46.6129H79.5161V57.5806ZM76.7742 49.3548H68.5484V54.8387H76.7742V49.3548ZM63.0645 57.5806H49.3548V46.6129H63.0645V57.5806ZM60.3226 49.3548H52.0968V54.8387H60.3226V49.3548Z" fill="url(#paint0_linear)"/>
<defs>
<linearGradient id="paint0_linear" x1="42.5" y1="85" x2="42.5" y2="0" gradientUnits="userSpaceOnUse">
<stop stop-color="#107EFF"/>
<stop offset="1" stop-color="#8F16FF"/>
</linearGradient>
</defs>
</svg>
