<svg width="85" height="85" viewBox="0 0 85 85" fill="none" xmlns="http://www.w3.org/2000/svg">
<path d="M23.1296 65.4116L16.3707 60.9052C15.7977 60.5241 15.1314 60.3226 14.4431 60.3226C12.5279 60.3226 10.9677 61.8814 10.9677 63.798V73.2988C10.9677 75.2154 12.5279 76.7742 14.4431 76.7742C15.1314 76.7742 15.7977 76.5727 16.3707 76.1902L23.1296 71.6838C24.0989 71.0381 24.6774 69.9564 24.6774 68.7924V68.3044C24.6774 67.1404 24.0989 66.0587 23.1296 65.4116ZM21.9355 68.7924C21.9355 69.0378 21.8135 69.2668 21.6092 69.4025L14.8503 73.9089C14.3952 74.2119 13.7097 73.8485 13.7097 73.2988V63.798C13.7097 63.3935 14.0387 63.0645 14.4431 63.0645C14.5885 63.0645 14.7297 63.107 14.8503 63.1879L21.6092 67.6943C21.8135 67.8314 21.9355 68.059 21.9355 68.3044V68.7924ZM80.8871 0H39.7581C37.4905 0 35.6452 1.84532 35.6452 4.1129V10.9677H5.48387C3.97169 10.9677 2.74194 12.1975 2.74194 13.7097V59.474C1.01315 62.0774 0 65.1964 0 68.5484C0 77.6201 7.37992 85 16.4516 85C21.3076 85 25.6659 82.8723 28.6793 79.5161H64.0036C65.5473 82.753 68.8431 85 72.6613 85C77.9519 85 82.2581 80.6952 82.2581 75.4032V40.3599C82.2581 39.7677 82.1264 39.1727 81.8811 38.6366L80.4991 35.6452H80.8871C83.1547 35.6452 85 33.7998 85 31.5323V4.1129C85 1.84532 83.1547 0 80.8871 0ZM35.6452 13.7097V21.9355H5.48387V13.7097H35.6452ZM16.4516 82.2581C8.8921 82.2581 2.74194 76.1079 2.74194 68.5484C2.74194 60.9889 8.8921 54.8387 16.4516 54.8387C24.0111 54.8387 30.1613 60.9889 30.1613 68.5484C30.1613 76.1079 24.0111 82.2581 16.4516 82.2581ZM30.6768 76.7742C32.0848 74.3503 32.9032 71.5467 32.9032 68.5484C32.9032 59.4767 25.5233 52.0968 16.4516 52.0968C12.2359 52.0968 8.39855 53.7035 5.48387 56.3207V24.6774H35.6452V31.5323C35.6452 33.7998 37.4905 35.6452 39.7581 35.6452H46.9954L48.9915 41.6349C49.4398 42.9716 50.6874 43.871 52.0968 43.871C53.5061 43.871 54.7537 42.9716 55.202 41.6335L57.1981 35.6452H64.8235L63.4429 38.638C63.1961 39.1727 63.0645 39.769 63.0645 40.3599V75.4032C63.0645 75.8694 63.1098 76.3245 63.1742 76.7742H30.6768ZM69.1091 32.9032H76.2135L78.7443 38.3871H66.5769L69.1091 32.9032ZM70.3745 30.1613L72.6613 25.2066L74.9481 30.1613H70.3745ZM65.8064 41.129H71.2903V65.8064H65.8064V41.129ZM65.8064 68.5484H79.5161V71.2903H65.8064V68.5484ZM74.0323 65.8064V41.129H79.5161V65.8064H74.0323ZM72.6613 82.2581C68.8815 82.2581 65.8064 79.183 65.8064 75.4032V74.0323H79.5161V75.4032C79.5161 79.183 76.441 82.2581 72.6613 82.2581ZM82.2581 31.5323C82.2581 32.2877 81.6439 32.9032 80.8871 32.9032H79.2337L72.6613 18.6644L66.0889 32.9032H55.2212L52.6013 40.7644C52.4546 41.2003 51.739 41.199 51.5923 40.7657L48.9723 32.9032H39.7581C39.0013 32.9032 38.3871 32.2877 38.3871 31.5323V4.1129C38.3871 3.3575 39.0013 2.74194 39.7581 2.74194H80.8871C81.6439 2.74194 82.2581 3.3575 82.2581 4.1129V31.5323ZM67.8437 12.0069L62.0253 6.18855L60.3226 7.89266V5.48387H52.0968V7.89403L50.394 6.18855L44.5756 12.0069L46.2811 13.7097H43.871V21.9355H46.2811L44.5756 23.6396L50.394 29.458L52.0968 27.7525V30.1613H60.3226V27.7511L62.0253 29.4566L67.8437 23.6382L66.1382 21.9355H68.5484V13.7097H66.1382L67.8437 12.0069ZM65.8064 19.2141C64.8317 19.3306 63.9885 19.9613 63.606 20.8867C63.2235 21.8107 63.373 22.8527 63.979 23.6259L62.0116 25.5932C61.2398 24.9886 60.1992 24.8392 59.2724 25.2203C58.3484 25.6028 57.7177 26.446 57.5998 27.4207H54.8181C54.7002 26.446 54.0696 25.6028 53.1456 25.2203C52.2202 24.8378 51.1796 24.9873 50.4064 25.5932L48.439 23.6259C49.045 22.854 49.1958 21.8121 48.8119 20.8867C48.4308 19.9613 47.5877 19.3306 46.6129 19.2141V16.4324C47.5877 16.3159 48.4308 15.6852 48.8133 14.7598C49.1958 13.8358 49.0464 12.7939 48.4404 12.0206L50.4077 10.0533C51.1796 10.6593 52.2215 10.8101 53.1469 10.4262C54.071 10.0437 54.7016 9.20056 54.8195 8.22581H57.6012C57.7191 9.20056 58.3498 10.0437 59.2738 10.4262C60.1978 10.8073 61.2384 10.6579 62.013 10.0533L63.9803 12.0206C63.3744 12.7925 63.2235 13.8344 63.6074 14.7598C63.9899 15.6852 64.8344 16.3159 65.8078 16.4324V19.2141H65.8064ZM56.2097 10.9677C52.4299 10.9677 49.3548 14.0428 49.3548 17.8226C49.3548 21.6023 52.4299 24.6774 56.2097 24.6774C59.9894 24.6774 63.0645 21.6023 63.0645 17.8226C63.0645 14.0428 59.9894 10.9677 56.2097 10.9677ZM56.2097 21.9355C53.9421 21.9355 52.0968 20.0902 52.0968 17.8226C52.0968 15.555 53.9421 13.7097 56.2097 13.7097C58.4773 13.7097 60.3226 15.555 60.3226 17.8226C60.3226 20.0902 58.4773 21.9355 56.2097 21.9355ZM12.3387 19.1935H9.59677V16.4516H12.3387V19.1935ZM17.8226 19.1935H15.0806V16.4516H17.8226V19.1935ZM23.3065 19.1935H20.5645V16.4516H23.3065V19.1935ZM38.3871 68.5484H41.129V71.2903H38.3871V68.5484ZM46.6129 68.5484H49.3548V71.2903H46.6129V68.5484ZM54.8387 68.5484H57.5806V71.2903H54.8387V68.5484ZM30.1613 27.4194H10.9677C9.45556 27.4194 8.22581 28.6491 8.22581 30.1613V46.6129C8.22581 48.1251 9.45556 49.3548 10.9677 49.3548H30.1613C31.6735 49.3548 32.9032 48.1251 32.9032 46.6129V30.1613C32.9032 28.6491 31.6735 27.4194 30.1613 27.4194ZM10.9677 30.1613H30.1613L30.1627 45.3996L25.1956 37.4521C24.4882 36.321 23.2694 35.6452 21.9355 35.6452C20.6015 35.6452 19.3827 36.321 18.6753 37.4521L12.9502 46.6129H10.9677V30.1613ZM27.6881 46.6129H16.1815L20.9991 38.9053C21.4063 38.2555 22.4633 38.2569 22.8705 38.9053L27.6881 46.6129ZM16.4516 35.6452H13.7097V32.9032H16.4516V35.6452ZM43.871 49.3548H38.3871V46.6129H43.871V49.3548ZM46.6129 46.6129H57.5806V49.3548H46.6129V46.6129ZM38.3871 52.0968H57.5806V54.8387H38.3871V52.0968ZM38.3871 57.5806H57.5806V60.3226H38.3871V57.5806ZM38.3871 63.0645H57.5806V65.8064H38.3871V63.0645Z" fill="url(#paint0_linear)"/>
<defs>
<linearGradient id="paint0_linear" x1="42.5" y1="85" x2="42.5" y2="0" gradientUnits="userSpaceOnUse">
<stop stop-color="#107EFF"/>
<stop offset="1" stop-color="#8F16FF"/>
</linearGradient>
</defs>
</svg>
