<svg width="85" height="85" viewBox="0 0 85 85" fill="none" xmlns="http://www.w3.org/2000/svg">
<path d="M63.0645 30.1613V27.4194C60.7969 27.4194 58.9516 25.574 58.9516 23.3065H61.6936C61.6936 24.0619 62.3091 24.6774 63.0645 24.6774H65.8064C66.5619 24.6774 67.1774 24.0619 67.1774 23.3065C67.1774 22.551 66.5619 21.9355 65.8064 21.9355H63.0645C60.7969 21.9355 58.9516 20.0902 58.9516 17.8226C58.9516 15.555 60.7969 13.7097 63.0645 13.7097V10.9677H65.8064V13.7097C68.074 13.7097 69.9194 15.555 69.9194 17.8226H67.1774C67.1774 17.0672 66.5619 16.4516 65.8064 16.4516H63.0645C62.3091 16.4516 61.6936 17.0672 61.6936 17.8226C61.6936 18.578 62.3091 19.1935 63.0645 19.1935H65.8064C68.074 19.1935 69.9194 21.0389 69.9194 23.3065C69.9194 25.574 68.074 27.4194 65.8064 27.4194V30.1613H63.0645ZM64.4355 35.6452C56.1206 35.6452 49.3548 28.8794 49.3548 20.5645C49.3548 12.2496 56.1206 5.48387 64.4355 5.48387C72.7504 5.48387 79.5161 12.2496 79.5161 20.5645C79.5161 28.8794 72.7504 35.6452 64.4355 35.6452ZM64.4355 32.9032C71.2382 32.9032 76.7742 27.3673 76.7742 20.5645C76.7742 13.7618 71.2382 8.22581 64.4355 8.22581C57.6327 8.22581 52.0968 13.7618 52.0968 20.5645C52.0968 27.3673 57.6327 32.9032 64.4355 32.9032ZM52.0968 74.0323H38.3871V63.0645H52.0968V74.0323ZM49.3548 65.8064H41.129V71.2903H49.3548V65.8064ZM41.129 76.7742H38.3871V79.5161H41.129V76.7742ZM49.3548 79.5161H52.0968V76.7742H49.3548V79.5161ZM43.871 79.5161H46.6129V76.7742H43.871V79.5161ZM71.2903 68.5484H54.8387V71.2903H71.2903V68.5484ZM79.5161 68.5484H74.0323V71.2903H79.5161V68.5484ZM69.445 75.2346L69.0529 76.4109C68.909 76.8441 68.1892 76.8441 68.0452 76.4109L67.1075 73.5977L64.5068 74.4655L65.4445 77.2787C65.8901 78.6181 67.1377 79.5161 68.5484 79.5161C69.9591 79.5161 71.2067 78.6181 71.6536 77.2773L72.0457 76.101C72.1856 75.6829 72.5735 75.4032 73.0123 75.4032C73.5757 75.4032 74.0323 75.8598 74.0323 76.4219V78.1452C74.0323 79.6573 75.262 80.8871 76.7742 80.8871H79.5161V78.1452H76.7742V76.4219C76.7742 74.3476 75.0865 72.6613 73.0123 72.6613C71.3918 72.6613 69.9577 73.695 69.445 75.2346ZM0 43.871C0 42.3766 0.604597 41.0221 1.57798 40.0309C0.563468 37.8456 0 35.4615 0 33.0458C0 23.896 7.44436 16.4516 16.5942 16.4516H22.9089C27.5455 16.4516 32.0793 15.5783 36.3827 13.8564C37.0202 13.6027 37.8675 13.807 38.2048 14.3993L38.978 15.7538C42.1806 21.3542 43.871 27.721 43.871 34.17C43.871 36.3073 43.424 38.4433 42.6179 40.4257C43.3898 41.3703 43.871 42.5603 43.871 43.871C43.871 46.8953 41.4115 49.3548 38.3871 49.3548H38.1102C37.1752 53.9407 33.9383 57.6903 29.6691 59.367C30.8139 59.9195 31.8956 60.5927 32.9032 61.381V57.5806H57.1625L54.8387 53.8612V38.7381C48.3239 35.2832 43.871 28.438 43.871 20.5645C43.871 9.22524 53.0962 0 64.4355 0C75.7748 0 85 9.22524 85 20.5645C85 28.438 80.5471 35.2846 74.0323 38.7381V53.8612L71.7085 57.5806H85V85H4.1129V75.4032C4.1129 68.3482 8.24363 62.2556 14.2046 59.3698C9.93266 57.6931 6.69581 53.9421 5.76081 49.3548H5.48387C2.45952 49.3548 0 46.8953 0 43.871H0ZM5.48387 46.6129V41.129C3.97169 41.129 2.74194 42.3588 2.74194 43.871C2.74194 45.3831 3.97169 46.6129 5.48387 46.6129ZM26.8682 61.1644L25.0325 64.2244L26.7736 65.9655L28.0911 61.6415C27.6922 61.4619 27.2823 61.3069 26.8682 61.1644ZM15.7826 61.6483L17.0973 65.9641L18.8385 64.223L17.0055 61.1671C16.5887 61.3111 16.1802 61.4701 15.7826 61.6483ZM21.9355 60.3226C21.2075 60.3226 20.4973 60.3925 19.7981 60.4926L21.3405 63.0645H22.5291L24.0715 60.4939C23.3681 60.3925 22.6566 60.3226 21.9355 60.3226ZM58.6829 54.8387L63.5005 62.5463C63.9049 63.1948 64.9647 63.1948 65.3691 62.5463L70.1881 54.8387H58.6829ZM71.2903 39.9294C69.556 40.545 67.7189 40.933 65.8064 41.0605V52.0968H71.2903V39.9294ZM64.4355 38.3871C74.2626 38.3871 82.2581 30.3916 82.2581 20.5645C82.2581 10.7374 74.2626 2.74194 64.4355 2.74194C54.6084 2.74194 46.6129 10.7374 46.6129 20.5645C46.6129 30.3916 54.6084 38.3871 64.4355 38.3871ZM57.5806 39.9294V52.0968H63.0645V41.0591C61.152 40.933 59.3149 40.545 57.5806 39.9294ZM35.6452 60.3226V82.2581H82.2581V60.3226H69.9948L67.6956 64.0009C66.9882 65.1319 65.7694 65.8064 64.4355 65.8064C63.1015 65.8064 61.8827 65.1319 61.1753 64.0009L58.8762 60.3226H35.6452ZM30.5328 63.0344L28.0651 71.1327L23.3065 66.374V79.5161H20.5645V66.374L15.8059 71.1327L13.3368 63.0302C9.4254 65.7571 6.85484 70.2827 6.85484 75.4032V82.2581H12.3387V74.0323H15.0806V82.2581H32.9032V65.0798C32.1794 64.3107 31.3869 63.6266 30.5328 63.0344ZM35.6452 35.6452L24.4827 35.6315L23.4696 35.4875C21.0361 35.1406 18.7864 34.2413 16.856 32.9046H12.3387C10.0711 32.9046 8.22581 34.7499 8.22581 37.0175V46.6143C8.22581 52.6616 13.1462 57.582 19.1935 57.582H24.676C30.7248 57.5806 35.6452 52.6602 35.6452 46.6115V35.6452ZM41.129 43.871C41.129 42.3588 39.8993 41.129 38.3871 41.129V46.6115V46.6129C39.8993 46.6129 41.129 45.3831 41.129 43.871ZM2.74194 33.0458C2.74194 34.972 3.16831 36.8749 3.94427 38.6339C4.43645 38.4899 4.94508 38.3871 5.48387 38.3871V37.0161C5.48387 33.2364 8.55895 30.1613 12.3387 30.1613H13.8523C12.6294 28.7012 11.6669 26.9971 11.0377 25.1106L13.6384 24.2428C15.1643 28.8205 19.0798 32.0889 23.8576 32.7716L24.7734 32.9032H25.1394C22.4427 31.0469 20.3479 28.364 19.2635 25.1106L21.8642 24.2428C23.3901 28.8205 27.3056 32.0889 32.0834 32.7716L32.9978 32.9032H38.3871V38.3871C39.0781 38.3871 39.732 38.5297 40.3407 38.7627C40.8576 37.2903 41.129 35.7274 41.129 34.17C41.129 28.1981 39.562 22.3002 36.5994 17.1152L36.4088 16.7806C32.0121 18.3956 27.5085 19.1935 22.9102 19.1935H16.5956C8.95653 19.1935 2.74194 25.4081 2.74194 33.0458ZM15.0806 46.6129H28.7903V47.9839C28.7903 51.7636 25.7152 54.8387 21.9355 54.8387C18.1557 54.8387 15.0806 51.7636 15.0806 47.9839V46.6129ZM18.057 49.3548C18.6232 50.9506 20.1477 52.0968 21.9355 52.0968C23.7232 52.0968 25.2477 50.9506 25.814 49.3548H18.057ZM17.8226 43.871H20.5645C20.5645 40.8466 18.105 38.3871 15.0806 38.3871C12.0563 38.3871 9.59677 40.8466 9.59677 43.871H12.3387C12.3387 42.3588 13.5685 41.129 15.0806 41.129C16.5928 41.129 17.8226 42.3588 17.8226 43.871ZM26.0484 43.871C26.0484 42.3588 27.2781 41.129 28.7903 41.129C30.3025 41.129 31.5323 42.3588 31.5323 43.871H34.2742C34.2742 40.8466 31.8147 38.3871 28.7903 38.3871C25.766 38.3871 23.3065 40.8466 23.3065 43.871H26.0484Z" fill="url(#paint0_linear)"/>
<defs>
<linearGradient id="paint0_linear" x1="42.5" y1="85" x2="42.5" y2="0" gradientUnits="userSpaceOnUse">
<stop stop-color="#107EFF"/>
<stop offset="1" stop-color="#9F2FFF"/>
</linearGradient>
</defs>
</svg>
