<svg id="_x33_0" enable-background="new 0 0 62 62" height="512" viewBox="0 0 62 62" width="512" xmlns="http://www.w3.org/2000/svg" xmlns:xlink="http://www.w3.org/1999/xlink"><linearGradient id="SVGID_1_" gradientUnits="userSpaceOnUse" x1="31" x2="31" y1="62" y2="0"><stop offset="0" stop-color="#9f2fff"/><stop offset="1" stop-color="#0bb1d3"/></linearGradient><path d="m25 32c-1.654 0-3 1.346-3 3s1.346 3 3 3 3-1.346 3-3-1.346-3-3-3zm0 4c-.551 0-1-.449-1-1s.449-1 1-1 1 .449 1 1-.449 1-1 1zm12-4c-1.654 0-3 1.346-3 3s1.346 3 3 3 3-1.346 3-3-1.346-3-3-3zm0 4c-.551 0-1-.449-1-1s.449-1 1-1 1 .449 1 1-.449 1-1 1zm-3.895 4.553 1.789.895c-.787 1.574-2.37 2.552-4.13 2.552h-2.764v-2h2.764c.998 0 1.895-.555 2.341-1.447zm-27.105-21.078v17.525c0 1.654 1.346 3 3 3h2v4h-2c-1.654 0-3 1.346-3 3v5.184c-1.161.414-2 1.514-2 2.816 0 1.654 1.346 3 3 3s3-1.346 3-3c0-1.302-.839-2.402-2-2.816v-5.184c0-.551.449-1 1-1h2v1h1c.988 0 1.879.588 2.216 1.463.107.278.222.554.342.826.383.862.17 1.911-.529 2.61l-.708.707 7.073 7.07.707-.707c.698-.698 1.746-.912 2.61-.527.271.12.547.234.826.342.875.337 1.463 1.228 1.463 2.216v1h10v-1c0-.988.588-1.879 1.463-2.216.278-.107.554-.222.826-.342.862-.382 1.912-.17 2.61.529l.708.708 7.07-7.073-.707-.707c-.699-.699-.911-1.748-.527-2.61.12-.271.234-.547.342-.826.336-.875 1.227-1.463 2.215-1.463h1v-1h2c.551 0 1 .449 1 1v5.184c-1.161.414-2 1.514-2 2.816 0 1.654 1.346 3 3 3s3-1.346 3-3c0-1.302-.839-2.402-2-2.816v-5.184c0-1.654-1.346-3-3-3h-2v-4h2c1.654 0 3-1.346 3-3v-17.525c3.49-1.24 6-4.565 6-8.475 0-4.962-4.038-9-9-9s-9 4.038-9 9 4.038 9 9 9c.338 0 .671-.022 1-.059v17.059c0 .551-.449 1-1 1h-2v-1h-1c-.046 0-.091-.012-.138-.015.082-.317.138-.643.138-.985 0-2.206-1.794-4-4-4v-4c0-5.818-4.163-10.678-9.666-11.768 2.219-1.641 3.666-4.267 3.666-7.232 0-4.962-4.038-9-9-9s-9 4.038-9 9c0 2.965 1.447 5.591 3.666 7.232-5.503 1.09-9.666 5.95-9.666 11.768v4c-2.206 0-4 1.794-4 4 0 .341.056.667.137.984-.046.002-.091.016-.137.016h-1v1h-2c-.551 0-1-.449-1-1v-17.059c.329.037.662.059 1 .059 4.962 0 9-4.038 9-9s-4.038-9-9-9-9 4.038-9 9c0 3.909 2.51 7.235 6 8.475zm1 36.525c-.551 0-1-.449-1-1s.449-1 1-1 1 .449 1 1-.449 1-1 1zm48 0c-.551 0-1-.449-1-1s.449-1 1-1 1 .449 1 1-.449 1-1 1zm-2-52c3.86 0 7 3.14 7 7 0 1.295-.36 2.505-.976 3.547-.892-1.606-2.363-2.768-4.096-3.268.65-.551 1.072-1.362 1.072-2.279 0-1.654-1.346-3-3-3s-3 1.346-3 3c0 .917.422 1.728 1.072 2.279-1.734.5-3.205 1.662-4.096 3.268-.616-1.042-.976-2.252-.976-3.547 0-3.86 3.14-7 7-7zm0 6c-.551 0-1-.449-1-1s.449-1 1-1 1 .449 1 1-.449 1-1 1zm-4.621 6.245.064-.16c.749-1.874 2.538-3.085 4.557-3.085s3.808 1.211 4.557 3.085l.064.159c-1.235 1.089-2.85 1.756-4.621 1.756s-3.386-.667-4.621-1.755zm.621 28.869c-1.392.321-2.569 1.298-3.082 2.629-.096.248-.197.493-.304.734-.581 1.309-.441 2.835.316 4.048l-4.405 4.404c-1.212-.757-2.739-.896-4.046-.316-.242.107-.487.209-.735.305-1.332.513-2.309 1.69-2.63 3.082h-6.228c-.321-1.392-1.298-2.569-2.629-3.082-.248-.096-.493-.197-.734-.304-1.308-.581-2.836-.441-4.048.316l-4.403-4.405c.757-1.213.896-2.739.316-4.046-.107-.242-.209-.487-.305-.735-.513-1.332-1.69-2.309-3.082-2.63v-6.227c.061-.014.12-.037.181-.053.722.72 1.719 1.166 2.818 1.166h1.053c-.095.662-.159 1.329-.159 2 0 7.72 6.28 14 14 14s14-6.28 14-14c0-.672-.064-1.339-.159-2h1.265c1.102 0 2.101-.448 2.826-1.172.059.016.114.045.174.058zm-6.119-2.859c-.07 3.331-1.503 6.328-3.765 8.462-.526-.88-1.221-1.635-2.047-2.229 2.569-1.363 4.625-3.562 5.812-6.233zm-15.578 7.202c.401.119.81.22 1.227.301l-.942 3.768c-1.137-.327-2.204-.816-3.177-1.444.608-1.19 1.642-2.131 2.892-2.625zm3.233.52c.156.005.308.023.464.023s.308-.018.463-.023l.978 3.912c-.508.065-1.022.111-1.547.111-.454 0-.901-.031-1.343-.08zm3.864 3.498-.929-3.717c.417-.081.826-.182 1.228-.301 1.228.482 2.227 1.373 2.841 2.527-.959.64-2.015 1.146-3.14 1.491zm7.6-16.475c0 6.065-4.935 11-11 11s-11-4.935-11-11v-5c0-1.103.897-2 2-2h16c.816 0 1.576-.246 2.209-.667l.276.069c.892.223 1.515 1.021 1.515 1.94zm-17.06 11.492c-.865.625-1.591 1.427-2.126 2.354-2.402-2.196-3.92-5.343-3.92-8.846 0-.086.013-.171.015-.258 1.143 2.905 3.295 5.302 6.031 6.75zm23.06-12.492c0 1.103-.897 2-2 2h-2.051c.026-.331.051-.662.051-1v-3h2c1.103 0 2 .897 2 2zm-17-28c-.551 0-1-.449-1-1s.449-1 1-1 1 .449 1 1-.449 1-1 1zm4.557 6.085.064.159c-1.235 1.089-2.85 1.756-4.621 1.756s-3.386-.667-4.621-1.755l.064-.16c.749-1.874 2.538-3.085 4.557-3.085s3.808 1.211 4.557 3.085zm-4.557-12.085c3.86 0 7 3.14 7 7 0 1.295-.36 2.505-.976 3.547-.892-1.606-2.363-2.768-4.096-3.268.65-.551 1.072-1.362 1.072-2.279 0-1.654-1.346-3-3-3s-3 1.346-3 3c0 .917.422 1.728 1.072 2.279-1.734.5-3.205 1.662-4.096 3.268-.616-1.042-.976-2.252-.976-3.547 0-3.86 3.14-7 7-7zm-13 26c0-5.514 4.486-10 10-10h6c5.514 0 10 4.486 10 10v3.342c0-1.604-.948-3.023-2.374-3.655.24-.513.374-1.084.374-1.687 0-2.206-1.794-4-4-4h-.146c-1.524 0-2.896.847-3.578 2.211l-.171.342 1.789.895.171-.342c.341-.682 1.027-1.106 1.789-1.106h.146c1.103 0 2 .897 2 2s-.897 2-2 2h-16c-2.206 0-4 1.794-4 4zm-2 6h2v3c0 .338.025.669.051 1h-2.051c-1.103 0-2-.897-2-2s.897-2 2-2zm-11.621-17.755.064-.16c.749-1.874 2.538-3.085 4.557-3.085s3.808 1.211 4.557 3.085l.064.159c-1.235 1.089-2.85 1.756-4.621 1.756s-3.386-.667-4.621-1.755zm4.621-6.245c-.551 0-1-.449-1-1s.449-1 1-1 1 .449 1 1-.449 1-1 1zm0-6c3.86 0 7 3.14 7 7 0 1.295-.36 2.505-.976 3.547-.892-1.606-2.363-2.768-4.096-3.268.65-.551 1.072-1.362 1.072-2.279 0-1.654-1.346-3-3-3s-3 1.346-3 3c0 .917.422 1.728 1.072 2.279-1.734.5-3.205 1.662-4.096 3.268-.616-1.042-.976-2.252-.976-3.547 0-3.86 3.14-7 7-7z" fill="url(#SVGID_1_)"/></svg>