<svg id="_x33_0" enable-background="new 0 0 62 62" height="512" viewBox="0 0 62 62" width="512" xmlns="http://www.w3.org/2000/svg" xmlns:xlink="http://www.w3.org/1999/xlink"><linearGradient id="SVGID_1_" gradientUnits="userSpaceOnUse" x1="31" x2="31" y1="62" y2="0"><stop offset="0" stop-color="#9f2fff"/><stop offset="1" stop-color="#0bb1d3"/></linearGradient><path d="m11 26c3.859 0 7-3.141 7-7s-3.141-7-7-7-7 3.141-7 7 3.141 7 7 7zm0-12c2.757 0 5 2.243 5 5s-2.243 5-5 5-5-2.243-5-5 2.243-5 5-5zm0 8c1.654 0 3-1.346 3-3s-1.346-3-3-3-3 1.346-3 3 1.346 3 3 3zm0-4c.552 0 1 .448 1 1s-.448 1-1 1-1-.448-1-1 .448-1 1-1zm48.732-2.617c-.06-.146-.222-.651.217-1.09l.95-.95-2.899-2.9v-7.443c0-1.654-1.346-3-3-3h-48c-1.654 0-3 1.346-3 3v7.443l-2.899 2.899.95.95c.438.438.276.944.217 1.09-.061.145-.305.618-.925.618h-1.343v6h1.343c.62 0 .864.473.925.617.06.146.222.651-.217 1.09l-.95.95 1.52 1.52c-1.691 2.276-2.621 5.042-2.621 7.893 0 4.624 2.463 8.974 6.428 11.353l3.572 2.143v2.948c-2.514 2.078-4 5.213-4 8.486v3h19.154l-.216-1.501c-.61-4.275-3.187-8.008-6.938-10.102v-.534c.437.09.886.137 1.343.137 3.671 0 6.657-2.986 6.657-6.657v-1.399c1.142-.246 2-1.264 2-2.479 0-.502-.147-.988-.426-1.406l-1.406-2.109c-.11-.166-.168-.357-.168-.555v-3.882c2.318-.386 4-2.372 4-4.723 0-2.642-2.148-4.79-4.79-4.79h-3.21v-4h5.279l1.456 4.369c.327.976 1.237 1.631 2.265 1.631s1.938-.655 2.265-1.632l1.456-4.368h5.279v4h-3.251c-2.618 0-4.749 2.131-4.749 4.749 0 2.321 1.715 4.316 4 4.683v3.963c0 .198-.058.39-.168.555l-1.406 2.109c-.279.418-.426.904-.426 1.406 0 1.215.858 2.232 2 2.479v1.399c0 3.671 2.986 6.657 6.657 6.657.457 0 .906-.047 1.343-.136v.534c-3.752 2.094-6.328 5.826-6.938 10.101l-.216 1.501h19.154v-3c0-3.273-1.486-6.408-4-8.485v-2.948l3.572-2.143c3.965-2.38 6.428-6.73 6.428-11.354 0-2.851-.93-5.617-2.621-7.893l1.52-1.52-.95-.95c-.438-.438-.276-.944-.217-1.09.061-.144.305-.617.925-.617h1.343v-6h-1.343c-.62 0-.864-.473-.925-.617zm-57.732 4.686v-2.139c.947-.204 1.729-.849 2.115-1.783.387-.934.291-1.941-.235-2.756l1.512-1.512c.813.525 1.822.621 2.756.235.934-.385 1.579-1.167 1.783-2.114h2.139c.204.947.849 1.729 1.783 2.115s1.941.291 2.756-.235l1.512 1.512c-.526.814-.622 1.822-.235 2.756.387.935 1.168 1.579 2.115 1.783v2.139c-.947.204-1.729.849-2.115 1.783-.387.934-.291 1.941.235 2.756l-1.512 1.512c-.815-.527-1.822-.621-2.756-.235-.935.387-1.579 1.168-1.783 2.115h-2.139c-.204-.947-.849-1.729-1.783-2.115-.933-.386-1.942-.292-2.756.234l-1.512-1.512c.526-.814.622-1.822.235-2.756-.386-.934-1.168-1.579-2.115-1.783zm20.163 23.931h1.77c-.083.579-.271 1.118-.547 1.608-.571-.39-1.004-.955-1.223-1.608zm3.302-4h-1.465v2h-4v1c0 1.64.788 3.154 2.054 4.114-.766.552-1.697.886-2.711.886-1.244 0-2.413-.484-3.293-1.364l-1.343-1.343-1.414 1.414 1.343 1.343c.413.413.873.758 1.364 1.044v2.524l.553.276c3.226 1.612 5.524 4.604 6.267 8.105h-6.82v-2.172c0-2.061-.836-4.078-2.293-5.535l-1.414 1.414c1.085 1.086 1.707 2.588 1.707 4.122v2.172h-6v-1c0-2.817 1.346-5.509 3.601-7.2l.399-.3v-11.5h-1c-.552 0-1-.448-1-1s.448-1 1-1h1v-1c0-1.654 1.346-3 3-3h5.676c1.405 0 2.602-.879 3.088-2.114l.236-.039v3.548c0 .594.174 1.17.504 1.664l1.406 2.109c.059.088.09.19.09.297 0 .295-.24.535-.535.535zm-.255-16c1.538 0 2.79 1.252 2.79 2.79 0 1.369-.98 2.526-2.332 2.751l-1.784.298c-.279-1.071-1.071-1.956-2.157-2.318l-1.41-.47-.633 1.898 1.41.469c.542.181.906.686.906 1.258 0 .73-.594 1.324-1.324 1.324h-5.676c-2.466 0-4.521 1.795-4.927 4.146-1.202.392-2.073 1.523-2.073 2.854 0 1.304.836 2.416 2 2.829v3.405l-2.543-1.526c-3.366-2.02-5.457-5.713-5.457-9.638 0-2.322.723-4.579 2.049-6.465l1.294 1.294.95-.95c.438-.439.945-.277 1.09-.217s.617.305.617.925v1.343h6v-1.343c0-.62.473-.864.617-.925.145-.06.651-.222 1.09.217l.95.95 4.242-4.242-.657-.657zm8.069-8-1.911 5.734c-.107.318-.629.317-.736.001l-1.911-5.735h-6.721-1-.343c-.62 0-.864-.473-.925-.617-.06-.146-.222-.651.217-1.09l.95-.95-4.242-4.242-.95.95c-.439.438-.946.276-1.09.217-.144-.061-.617-.305-.617-.925v-1.343h-6v1.343c0 .62-.473.864-.617.925-.145.06-.651.223-1.09-.217l-.293-.293v-6.758c0-.552.448-1 1-1h48c.552 0 1 .448 1 1v6.758l-.293.293c-.438.438-.946.276-1.09.217-.144-.061-.617-.305-.617-.925v-1.343h-6v1.343c0 .62-.473.864-.617.925-.145.06-.65.223-1.09-.217l-.95-.95-4.242 4.242.95.95c.438.438.276.944.217 1.09-.061.144-.305.617-.925.617h-.343-1zm5.334 29.608c-.276-.49-.464-1.029-.547-1.608h1.77c-.218.653-.651 1.218-1.223 1.608zm15.387 13.392v1h-6v-2.172c0-1.534.622-3.036 1.707-4.121l-1.414-1.414c-1.457 1.457-2.293 3.475-2.293 5.535v2.172h-6.819c.742-3.5 3.041-6.492 6.267-8.105l.552-.277v-2.524c.491-.286.952-.632 1.364-1.044l1.343-1.343-1.414-1.414-1.343 1.343c-.88.88-2.049 1.364-3.293 1.364-1.014 0-1.946-.334-2.711-.886 1.266-.96 2.054-2.474 2.054-4.114v-1h-4v-2h-1.465c-.295 0-.535-.24-.535-.535 0-.106.031-.209.09-.297l1.406-2.109c.33-.494.504-1.07.504-1.664v-3.67l.42.06c.459.747 1.252 1.274 2.174 1.351l6.337.528c1.72.144 3.069 1.608 3.069 3.336v1h1c.552 0 1 .448 1 1s-.448 1-1 1h-1v11.5l.399.3c2.255 1.691 3.601 4.383 3.601 7.2zm6-24.93c0 3.925-2.091 7.618-5.457 9.638l-2.543 1.526v-3.405c1.164-.413 2-1.525 2-2.829 0-1.329-.869-2.46-2.069-2.853-.389-2.374-2.373-4.271-4.834-4.476l-6.337-.528c-.433-.036-.76-.391-.76-.826 0-.356.228-.673.566-.785l1.75-.583-.633-1.898-1.75.584c-.96.32-1.651 1.12-1.861 2.079l-1.712-.244c-1.345-.192-2.36-1.362-2.36-2.721 0-1.516 1.233-2.749 2.749-2.749h5.009l-.657.657 4.242 4.242.95-.95c.438-.439.944-.277 1.09-.217.144.061.617.305.617.925v1.343h6v-1.343c0-.62.473-.864.617-.925.145-.06.651-.222 1.09.217l.95.95 1.294-1.294c1.326 1.886 2.049 4.143 2.049 6.465zm0-14.001c-.947.204-1.729.849-2.115 1.783-.387.934-.291 1.941.235 2.756l-1.512 1.512c-.815-.527-1.823-.621-2.756-.235-.935.387-1.579 1.168-1.783 2.115h-2.139c-.204-.947-.849-1.729-1.783-2.115-.933-.385-1.94-.291-2.756.235l-1.512-1.512c.526-.814.622-1.822.235-2.756-.387-.935-1.168-1.579-2.115-1.783v-2.139c.947-.204 1.729-.849 2.115-1.783.387-.934.291-1.941-.235-2.756l1.512-1.512c.814.525 1.822.621 2.756.235.935-.387 1.579-1.168 1.783-2.115h2.139c.204.947.849 1.729 1.783 2.115s1.941.291 2.756-.235l1.512 1.512c-.526.814-.622 1.822-.235 2.756.387.935 1.168 1.579 2.115 1.783zm-9-8.069c-3.859 0-7 3.141-7 7s3.141 7 7 7 7-3.141 7-7-3.141-7-7-7zm0 12c-2.757 0-5-2.243-5-5s2.243-5 5-5 5 2.243 5 5-2.243 5-5 5zm0-8c-1.654 0-3 1.346-3 3s1.346 3 3 3 3-1.346 3-3-1.346-3-3-3zm0 4c-.552 0-1-.448-1-1s.448-1 1-1 1 .448 1 1-.448 1-1 1zm-33-12h2v2h-2zm6 0h2v2h-2zm6 0h2v2h-2zm6 0h2v2h-2zm8 2h-2v-2h2zm-22 27c0 .552-.448 1-1 1s-1-.448-1-1 .448-1 1-1 1 .448 1 1zm23.565-1.105.329.658-1.789.895-.329-.658c-.243-.487-.732-.79-1.276-.79s-1.033.303-1.276.789l-.329.658-1.789-.895.329-.658c.584-1.168 1.758-1.894 3.065-1.894s2.481.726 3.065 1.895z" fill="url(#SVGID_1_)"/></svg>