<svg id="_x33_0" enable-background="new 0 0 62 62" height="512" viewBox="0 0 62 62" width="512" xmlns="http://www.w3.org/2000/svg" xmlns:xlink="http://www.w3.org/1999/xlink"><linearGradient id="SVGID_1_" gradientUnits="userSpaceOnUse" x1="31" x2="31" y1="62" y2="0"><stop offset="0" stop-color="#9f2fff"/><stop offset="1" stop-color="#0bb1d3"/></linearGradient><path d="m51 10c-1.654 0-3 1.346-3 3s1.346 3 3 3 3-1.346 3-3-1.346-3-3-3zm0 4c-.552 0-1-.448-1-1s.448-1 1-1 1 .448 1 1-.448 1-1 1zm8.732-4.617c-.06-.146-.222-.651.217-1.09l.95-.95-4.242-4.242-.95.95c-.439.438-.945.275-1.09.217-.144-.061-.617-.305-.617-.925v-1.343h-6v1.343c0 .62-.473.864-.617.925-.145.06-.65.222-1.09-.217l-.95-.95-4.242 4.242.657.657h-10.789c-2.029-4.811-6.776-8-12.043-8h-3.852c-7.209 0-13.074 5.865-13.074 13.074 0 2.781.865 5.439 2.501 7.688l3.926 5.399c.83 1.143 1.327 2.456 1.495 3.839h-1.922c-1.103 0-2 .897-2 2v4h-2c-2.206 0-4 1.794-4 4s1.794 4 4 4h2.426c.989 3.478 3.644 6.254 7.049 7.41l-.258.773-.644.184c-3.923 1.121-6.891 4.445-7.561 8.469l-.193 1.164h53.181v-34c0-1.103-.897-2-2-2h-4c-1.103 0-2 .897-2 2v4h-4c-1.103 0-2 .897-2 2v4h-4c-1.103 0-2 .897-2 2v4h-4c-1.103 0-2 .897-2 2v14h-3.216c-.919-3.639-3.714-6.591-7.358-7.633l-.644-.184-.258-.773c3.405-1.156 6.061-3.932 7.049-7.41h2.427c2.206 0 4-1.794 4-4s-1.794-4-4-4h-2v-4c0-1.103-.897-2-2-2h-1.922c.168-1.383.665-2.696 1.495-3.838l3.926-5.398c.623-.856 1.132-1.785 1.53-2.764h10.729l-.657.657 4.242 4.242.95-.95c.438-.439.944-.277 1.09-.217.144.061.617.305.617.925v1.343h6v-1.343c0-.62.473-.864.617-.925.145-.06.651-.223 1.09.217l.95.95 4.242-4.242-.95-.95c-.438-.438-.276-.944-.217-1.09.061-.144.305-.617.925-.617h1.343v-6h-1.343c-.62 0-.864-.473-.925-.617zm-29.732 28.617c1.103 0 2 .897 2 2s-.897 2-2 2h-2.051c.03-.33.051-.662.051-1v-3zm10-26h-16v-2h16zm-18 7c0 .552-.448 1-1 1h-1v-1c0-.552.448-1 1-1s1 .448 1 1zm0-8.461v4.921l-2-.889v-3.144zm-4 3.144-1.537-.683 1.537-.683zm-7.956 11.303-3.926-5.399c-1.386-1.905-2.118-4.157-2.118-6.513 0-6.106 4.968-11.074 11.074-11.074h3.852c4.172 0 7.959 2.362 9.838 6h-5.339c-.424 0-.834.087-1.219.259l-10.669 4.741 7.84 3.484c-.826.535-1.377 1.46-1.377 2.516v1h-2v-1c0-1.654-1.346-3-3-3s-3 1.346-3 3 1.346 3 3 3h1v8h-2.054c-.175-1.809-.821-3.527-1.902-5.014zm5.956 5.014v-8h2v8zm-2-10h-1c-.552 0-1-.448-1-1s.448-1 1-1 1 .448 1 1zm-10 22c-1.103 0-2-.897-2-2s.897-2 2-2h2v3c0 .338.021.67.051 1zm13.153 14 .667 4h-1.64l.667-4zm-4.03-1.709.586-.168 1.22 1.22-.776 4.657h-6.887c.862-2.731 3.06-4.91 5.857-5.709zm38.877-26.291h4v32h-4zm-2 6v26h-4v-26zm-6 6v20h-4v-20zm-10 6h4v14h-4zm-13.123 8.291c2.796.799 4.993 2.978 5.855 5.709h-6.885l-.776-4.657 1.22-1.22zm-2.021-1.561-1.27 1.27h-1.172l-1.27-1.27.285-.855c.514.074 1.036.125 1.571.125s1.057-.051 1.571-.125zm7.144-11.73c0 4.963-4.037 9-9 9s-9-4.037-9-9v-9h18zm1.882-21.413-3.926 5.399c-1.081 1.487-1.727 3.204-1.902 5.014h-2.054v-8h1c1.654 0 3-1.346 3-3 0-.352-.072-.686-.184-1h5.013c-.274.552-.583 1.086-.947 1.587zm-3.882-3.587v-2h16v2zm36-1.931c-.947.204-1.729.849-2.115 1.783-.387.934-.291 1.941.235 2.756l-1.512 1.512c-.814-.527-1.823-.622-2.756-.235-.935.387-1.579 1.168-1.783 2.115h-2.139c-.204-.947-.849-1.729-1.783-2.115-.933-.386-1.941-.291-2.756.235l-1.512-1.512c.526-.814.622-1.822.235-2.756-.387-.935-1.168-1.579-2.115-1.783v-2.139c.947-.204 1.729-.849 2.115-1.783.387-.934.291-1.941-.235-2.756l1.512-1.512c.813.526 1.822.62 2.756.235.935-.385 1.58-1.167 1.784-2.114h2.139c.204.947.849 1.729 1.783 2.115.934.387 1.941.291 2.756-.235l1.512 1.512c-.526.814-.622 1.822-.235 2.756.387.935 1.168 1.579 2.115 1.783v2.138zm-9-8.069c-3.859 0-7 3.141-7 7s3.141 7 7 7 7-3.141 7-7-3.141-7-7-7zm0 12c-2.757 0-5-2.243-5-5s2.243-5 5-5 5 2.243 5 5-2.243 5-5 5zm-41.565 20.105-.329-.658 1.789-.895.329.658c.243.487.732.79 1.276.79s1.033-.303 1.276-.789l.329-.658 1.789.895-.329.658c-.584 1.168-1.758 1.894-3.065 1.894s-2.481-.726-3.065-1.895zm9 0-.329-.658 1.789-.895.329.658c.243.487.732.79 1.276.79s1.033-.303 1.276-.789l.329-.658 1.789.895-.329.658c-.584 1.168-1.758 1.894-3.065 1.894s-2.481-.726-3.065-1.895zm.858 4.188 1.414 1.414c-1.457 1.457-3.475 2.293-5.535 2.293h-1.172v-2h1.172c1.534 0 3.036-.622 4.121-1.707z" fill="url(#SVGID_1_)"/></svg>