<svg id="Gradient" enable-background="new 0 0 62 62" height="512" viewBox="0 0 62 62" width="512" xmlns="http://www.w3.org/2000/svg" xmlns:xlink="http://www.w3.org/1999/xlink"><linearGradient id="SVGID_1_" gradientUnits="userSpaceOnUse" x1="31" x2="31" y1="62" y2="0"><stop offset="0" stop-color="#9f2fff"/><stop offset="1" stop-color="#0bb1d3"/></linearGradient><path d="m38 31c0-1.654-1.346-3-3-3s-3 1.346-3 3 1.346 3 3 3 3-1.346 3-3zm-4 0c0-.551.448-1 1-1s1 .449 1 1-.448 1-1 1-1-.449-1-1zm-7-3c-1.654 0-3 1.346-3 3s1.346 3 3 3 3-1.346 3-3-1.346-3-3-3zm0 4c-.552 0-1-.449-1-1s.448-1 1-1 1 .449 1 1-.448 1-1 1zm5-24h-2v-2h2zm4 0h-2v-2h2zm-8 0h-2v-2h2zm-26 24h-2v-2h2zm4-4v-2h2v2zm-4-14h4v2h-2v2h10v-2h-2v-2h4c1.103 0 2-.897 2-2v-10c0-1.103-.897-2-2-2h-14c-1.103 0-2 .897-2 2v10c0 1.103.897 2 2 2zm8 2h-2v-2h2zm-8-4v-2h14.001v2zm14-10 .001 6h-14.001v-6zm44 28h2v2h-2zm-4-4v2h-2v-2zm4 18h-6v-10h-6v-2h10v-2h-10v-2h4v-2h-4v-3.618l-17-8.5-17 8.5v3.618h-4v2h4v2h-10v2h10v2h-6v10h-6c-1.103 0-2 .897-2 2v10c0 1.103.897 2 2 2h4v2h-2v2h10v-2h-2v-2h4c1.103 0 2-.897 2-2v-10c0-1.103-.897-2-2-2h-6v-8h4v3.618l8.467 4.234c-.109.092-.239.148-.378.148h-2.089v6h2.089c.249 0 .479.168.598.453.111.269.069.547-.109.726l-1.481 1.481 4.244 4.244 1.48-1.48c.18-.18.459-.221.75-.101.265.11.43.335.43.588v2.089h6v-2.088c0-.253.165-.479.453-.598.269-.113.546-.07.727.11l1.48 1.48 4.244-4.244-1.481-1.48c-.179-.18-.221-.458-.1-.75.108-.261.339-.43.588-.43h2.088v-6h-2.089c-.137 0-.267-.055-.377-.149l8.466-4.233v-3.618h4v8h-6c-1.103 0-2 .897-2 2v10c0 1.103.897 2 2 2h4v2h-2v2h10v-2h-2v-2h4c1.103 0 2-.897 2-2v-10c0-1.103-.897-2-2-2zm-50 16h-2v-2h2zm-8-4v-2h14.001v2zm14.001-4h-14.001v-6h14zm15.999-16v3c0 .551-.448 1-1 1s-1-.449-1-1v-3h-2v3c0 .551-.448 1-1 1s-1-.449-1-1v-3.5l-1.733-1.3c-1.419-1.064-2.267-2.759-2.267-4.533 0-3.125 2.542-5.667 5.667-5.667h6.666c3.125 0 5.667 2.542 5.667 5.667 0 1.774-.848 3.469-2.268 4.534l-1.732 1.299v3.5c0 .551-.448 1-1 1s-1-.449-1-1v-3zm1.958 10.639c.015.12.042.238.042.361 0 1.654-1.346 3-3 3s-3-1.346-3-3c0-.123.027-.241.042-.361l2.958 1.479zm-17.958-23.021 14-7v5.382h-2.333c-4.228 0-7.667 3.439-7.667 7.667 0 2.4 1.146 4.693 3.067 6.133l.933.7v2.5c0 1.654 1.346 3 3 3 .771 0 1.468-.301 2-.78.289.26.626.463 1 .596v3.566l-14-7zm23.911 22.382h.089v2h-.089c-1.062 0-2.019.654-2.443 1.685-.423 1.015-.211 2.157.541 2.909l.067.066-1.416 1.416-.066-.067c-.754-.752-1.896-.965-2.928-.533-1.013.418-1.666 1.374-1.666 2.436v.088h-2v-.088c0-1.062-.653-2.018-1.684-2.444-1.014-.423-2.156-.21-2.91.542l-.066.066-1.416-1.416.067-.067c.752-.751.964-1.893.533-2.927-.417-1.012-1.374-1.666-2.435-1.666h-.089v-2h.089c.896 0 1.713-.469 2.204-1.235l1.883.941c-.113.419-.176.851-.176 1.294 0 2.757 2.243 5 5 5s5-2.243 5-5c0-.443-.063-.875-.175-1.294l1.88-.94c.484.76 1.306 1.234 2.206 1.234zm6.089-7.618-14 7v-3.566c.374-.133.711-.335 1-.596.532.48 1.229.78 2 .78 1.654 0 3-1.346 3-3v-2.5l.933-.7c1.921-1.44 3.067-3.733 3.067-6.133 0-4.228-3.439-7.667-7.667-7.667h-2.333v-5.382l14 7zm14 7.618v6h-14v-6zm-6 14h-2v-2h2zm-8-4v-2h14v2zm14-56h-14c-1.103 0-2 .897-2 2v10c0 1.103.897 2 2 2h4v2h-2v2h10v-2h-2v-2h4c1.103 0 2-.897 2-2v-10c0-1.103-.897-2-2-2zm0 2v6h-14v-6zm-6 14h-2v-2h2zm-8-4v-2h14v2zm-16 50h-2v-2h2zm-4-2v2h-2v-2zm8 0v2h-2v-2zm4 0v2h-2v-2z" fill="url(#SVGID_1_)"/></svg>