<svg height="496pt" viewBox="0 0 496 496" width="496pt" xmlns="http://www.w3.org/2000/svg" xmlns:xlink="http://www.w3.org/1999/xlink"><linearGradient id="a" gradientUnits="userSpaceOnUse" x1="248" x2="248" y1="496" y2="0"><stop offset="0" stop-color="#9f2fff"/><stop offset="1" stop-color="#0bb1d3"/></linearGradient><path d="m152 184c-13.230469 0-24-10.769531-24-24h16c0 4.40625 3.585938 8 8 8zm192 176c13.230469 0 24-10.769531 24-24h-16c0 4.40625-3.585938 8-8 8zm118.34375-314.0625-91.34375 97.054688c3.121094 4.9375 5 10.742187 5 17.007812 0 14.863281-10.230469 27.289062-24 30.863281v89.777344c18.761719 2.703125 34.511719 14.710937 42.449219 31.214844l53.640625-16.765625c.496094-12.800782 10.988281-23.089844 23.910156-23.089844 13.230469 0 24 10.769531 24 24s-10.769531 24-24 24c-7.832031 0-14.734375-3.824219-19.121094-9.648438l-53.65625 16.769532c.464844 2.902344.777344 5.855468.777344 8.878906 0 28.152344-20.910156 51.457031-48 55.359375v58.113281c9.289062 3.3125 16 12.113282 16 22.527344 0 13.230469-10.769531 24-24 24s-24-10.769531-24-24c0-10.414062 6.710938-19.214844 16-22.527344v-58.113281c-24.472656-3.527344-43.832031-22.886719-47.359375-47.359375h-105.777344c-1.726562 6.648438-5.527343 12.390625-10.6875 16.632812l25.65625 55.582032c.726563-.0625 1.425781-.214844 2.167969-.214844 13.230469 0 24 10.769531 24 24s-10.769531 24-24 24-24-10.769531-24-24c0-6.726562 2.800781-12.792969 7.273438-17.152344l-25.585938-55.414062c-1.855469.328125-3.734375.566406-5.6875.566406-5.566406 0-10.726562-1.558594-15.296875-4.0625l-91.445313 97.160156c1.695313 3.285156 2.742188 6.957032 2.742188 10.902344 0 13.230469-10.769531 24-24 24s-24-10.769531-24-24 10.769531-24 24-24c3.441406 0 6.695312.753906 9.65625 2.0625l91.34375-97.046875c-3.121094-4.945313-5-10.75-5-17.015625 0-14.863281 10.230469-27.289062 24-30.863281v-89.777344c-13-1.871094-24.542969-8.199219-33.0625-17.414063l-63.839844 43.886719c.527344 1.976563.902344 4.023438.902344 6.167969 0 13.230469-10.769531 24-24 24s-24-10.769531-24-24 10.769531-24 24-24c5.257812 0 10.089844 1.753906 14.046875 4.632812l63.808594-43.863281c-3.710938-7.480469-5.855469-15.875-5.855469-24.769531 0-28.152344 20.910156-51.457031 48-55.359375v-58.113281c-9.289062-3.3125-16-12.113282-16-22.527344 0-13.230469 10.769531-24 24-24s24 10.769531 24 24c0 10.414062-6.710938 19.214844-16 22.527344v58.113281c24.472656 3.527344 43.832031 22.886719 47.359375 47.359375h105.777344c3.574219-13.761719 15.992187-24 30.863281-24 5.566406 0 10.734375 1.558594 15.304688 4.070312l91.4375-97.167968c-1.695313-3.285156-2.742188-6.957032-2.742188-10.902344 0-13.230469 10.769531-24 24-24s24 10.769531 24 24-10.769531 24-24 24c-3.441406 0-6.695312-.753906-9.65625-2.0625zm-430.34375 202.0625c0-4.40625-3.585938-8-8-8s-8 3.59375-8 8 3.585938 8 8 8 8-3.59375 8-8zm168 184c-4.414062 0-8 3.59375-8 8s3.585938 8 8 8 8-3.59375 8-8-3.585938-8-8-8zm264-136c0 4.40625 3.585938 8 8 8s8-3.59375 8-8-3.585938-8-8-8-8 3.59375-8 8zm0-272c0 4.40625 3.585938 8 8 8s8-3.59375 8-8-3.585938-8-8-8-8 3.59375-8 8zm-320 0c0 4.40625 3.585938 8 8 8s8-3.59375 8-8-3.585938-8-8-8-8 3.59375-8 8zm8 176c22.054688 0 40-17.945312 40-40s-17.945312-40-40-40-40 17.945312-40 40 17.945312 40 40 40zm-120 272c0-4.40625-3.585938-8-8-8s-8 3.59375-8 8 3.585938 8 8 8 8-3.59375 8-8zm120-120c8.824219 0 16-7.175781 16-16s-7.175781-16-16-16-16 7.175781-16 16 7.175781 16 16 16zm30.863281-24h105.777344c3.527344-24.472656 22.886719-43.832031 47.359375-47.359375v-89.777344c-11.191406-2.910156-19.953125-11.671875-22.863281-22.863281h-105.777344c-3.527344 24.472656-22.886719 43.832031-47.359375 47.359375v89.777344c11.191406 2.910156 19.953125 11.671875 22.863281 22.863281zm169.136719 144c0-4.40625-3.585938-8-8-8s-8 3.59375-8 8 3.585938 8 8 8 8-3.59375 8-8zm-8-176c-22.054688 0-40 17.945312-40 40s17.945312 40 40 40 40-17.945312 40-40-17.945312-40-40-40zm16-136c0-8.824219-7.175781-16-16-16s-16 7.175781-16 16 7.175781 16 16 16 16-7.175781 16-16zm0 0" fill="url(#a)"/></svg>