<svg id="Layer_5" enable-background="new 0 0 62 62" height="512" viewBox="0 0 62 62" width="512" xmlns="http://www.w3.org/2000/svg" xmlns:xlink="http://www.w3.org/1999/xlink"><linearGradient id="SVGID_1_" gradientUnits="userSpaceOnUse" x1="31" x2="31" y1="62" y2="0"><stop offset="0" stop-color="#9f2fff"/><stop offset="1" stop-color="#0bb1d3"/></linearGradient><path d="m58 49c0 .552-.448 1-1 1s-1-.448-1-1 .448-1 1-1 1 .448 1 1zm-5-1c-.552 0-1 .448-1 1s.448 1 1 1 1-.448 1-1-.448-1-1-1zm-4 0c-.552 0-1 .448-1 1s.448 1 1 1 1-.448 1-1-.448-1-1-1zm-28-18h2c0-.551.449-1 1-1s1 .449 1 1h2c0-1.654-1.346-3-3-3s-3 1.346-3 3zm-14 0h2c0-.551.449-1 1-1s1 .449 1 1h2c0-1.654-1.346-3-3-3s-3 1.346-3 3zm10 12c2.757 0 5-2.243 5-5h-2c0 1.654-1.346 3-3 3s-3-1.346-3-3h-2c0 2.757 2.243 5 5 5zm-17-3v-16c0-9.374 7.626-17 17-17 7.634 0 14.107 5.059 16.247 12h23.753c2.757 0 5 2.243 5 5v26c0 2.757-2.243 5-5 5h-10v2h3c1.654 0 3 1.346 3 3v3h-43v-8.867c-5.921-2.099-10-7.798-10-14.133zm13.228-18.98-3.704.444c-2.009.242-3.524 1.949-3.524 3.972v.104c1.063-.954 2.462-1.54 4-1.54 2.967 0 5.431 2.167 5.91 5h2.181c.478-2.833 2.942-5 5.91-5 1.538 0 2.937.586 4 1.54v-3.54h-9.597c-1.803 0-3.548-.35-5.176-.98zm10.772 4.98c-2.206 0-4 1.794-4 4s1.794 4 4 4 4-1.794 4-4-1.794-4-4-4zm-14 0c-2.206 0-4 1.794-4 4s1.794 4 4 4 4-1.794 4-4-1.794-4-4-4zm-4 10c0 4.959 4.032 8.994 8.99 9 .003 0 .006-.001.01-.001.005 0 .01.001.014.001h1.429 2.557c4.962 0 9-4.038 9-9v-1.54c-1.063.954-2.462 1.54-4 1.54-2.967 0-5.431-2.167-5.91-5h-2.18c-.478 2.833-2.942 5-5.91 5-1.538 0-2.937-.586-4-1.54zm24 19h-1-1.184c.112.314.184.648.184 1v1h4c0-1.103-.897-2-2-2zm-10.591-7.308c.364.693.591 1.471.591 2.307 0 .802.312 1.555.878 2.122.567.567 1.32.879 2.122.879h.923c-.341-2.224-1.8-4.145-3.912-5.051zm-4.419-.692c-1.65.005-2.99 1.348-2.99 2.999 0 6.065 4.935 11.001 11 11.001h2c.552 0 1-.449 1-1v-4c0-.551-.449-1-1-1h-2c-1.336 0-2.591-.52-3.536-1.465-.944-.945-1.464-2.201-1.464-3.536 0-1.649-1.338-2.991-2.985-2.999h-.015c-.003 0-.006 0-.01 0zm-2.99 14h4.105c-1.658-1.043-3.062-2.447-4.105-4.105zm38-2h-22v1c0 .352-.072.686-.184 1h23.184v-1c0-.551-.449-1-1-1zm-5-4h-11.556c.344.591.556 1.268.556 2h11zm15-5v-3h-27.749c-1.308 2.473-3.297 4.57-5.776 6h2.525 1 27c1.654 0 3-1.346 3-3zm-26.281-29c.174.976.281 1.975.281 3v16c0 1.731-.308 3.417-.871 5h26.871v-21c0-1.654-1.346-3-3-3zm-31.719 19c0 5.25 3.232 9.997 8 11.994v-1.995-.001c0-1.401.583-2.665 1.514-3.573-4.36-1.463-7.514-5.579-7.514-10.425v-10.564c0-3.035 2.272-5.596 5.286-5.957l.88-.105c-1.089-.769-2.089-1.678-2.946-2.749l1.562-1.249c2.35 2.938 5.858 4.624 9.621 4.624h9.489c-.415-1.908-1.99-3.432-3.984-3.717l-2.05-.293.283-1.979 2.05.293c3.312.472 5.809 3.351 5.809 6.696v1 14c0 5.099-3.493 9.387-8.208 10.627 1.774 1.051 3.083 2.693 3.736 4.61 3.965-2.31 6.472-6.597 6.472-11.237v-16c0-8.271-6.729-15-15-15s-15 6.729-15 15zm33-25.414v-10.586c0-1.654 1.346-3 3-3h18c1.654 0 3 1.346 3 3v8c0 1.654-1.346 3-3 3h-15.586l-1.293 1.293c-.456.456-1.062.707-1.707.707-1.331 0-2.414-1.083-2.414-2.414zm2 0c0 .338.469.531.707.293l1.879-1.879h16.414c.551 0 1-.449 1-1v-8c0-.551-.449-1-1-1h-18c-.551 0-1 .449-1 1zm4-3.586h2v-2h2v-2h-2v-2h-2v2h-2v2h2zm14-6h-8v2h8zm0 4h-8v2h8zm-9 24h-10v-10h10zm-2-8h-6v6h6zm14 8h-10v-10h10zm-2-8h-6v6h6zm2 18h-10v-8h10zm-2-6h-6v4h6zm-10 6h-10v-8h10zm-2-6h-6v4h6z" fill="url(#SVGID_1_)"/></svg>