<svg id="Layer_5" enable-background="new 0 0 62 62" height="512" viewBox="0 0 62 62" width="512" xmlns="http://www.w3.org/2000/svg" xmlns:xlink="http://www.w3.org/1999/xlink"><linearGradient id="SVGID_1_" gradientUnits="userSpaceOnUse" x1="31" x2="31" y1="62" y2="0"><stop offset="0" stop-color="#9f2fff"/><stop offset="1" stop-color="#0bb1d3"/></linearGradient><path d="m46 22v-2c-1.654 0-3-1.346-3-3h2c0 .551.449 1 1 1h2c.551 0 1-.449 1-1s-.449-1-1-1h-2c-1.654 0-3-1.346-3-3s1.346-3 3-3v-2h2v2c1.654 0 3 1.346 3 3h-2c0-.551-.449-1-1-1h-2c-.551 0-1 .449-1 1s.449 1 1 1h2c1.654 0 3 1.346 3 3s-1.346 3-3 3v2zm1 4c-6.065 0-11-4.935-11-11s4.935-11 11-11 11 4.935 11 11-4.935 11-11 11zm0-2c4.962 0 9-4.038 9-9s-4.038-9-9-9-9 4.038-9 9 4.038 9 9 9zm-9 30h-10v-8h10zm-2-6h-6v4h6zm-6 8h-2v2h2zm6 2h2v-2h-2zm-4 0h2v-2h-2zm20-8h-12v2h12zm6 0h-4v2h4zm-7.346 4.877-.286.858c-.105.316-.63.316-.735 0l-.684-2.052-1.897.633.684 2.052c.325.977 1.235 1.632 2.264 1.632s1.939-.655 2.265-1.633l.286-.858c.102-.305.385-.509.705-.509.411 0 .744.333.744.743v1.257c0 1.103.897 2 2 2h2v-2h-2v-1.257c0-1.513-1.231-2.743-2.744-2.743-1.182 0-2.228.754-2.602 1.877zm-50.654-22.877c0-1.09.441-2.078 1.151-2.801-.74-1.594-1.151-3.333-1.151-5.095 0-6.674 5.43-12.104 12.104-12.104h4.606c3.382 0 6.689-.637 9.828-1.893.465-.185 1.083-.036 1.329.396l.564.988c2.336 4.085 3.569 8.729 3.569 13.433 0 1.559-.326 3.117-.914 4.563.563.689.914 1.557.914 2.513 0 2.206-1.794 4-4 4h-.202c-.682 3.345-3.043 6.08-6.157 7.303.835.403 1.624.894 2.359 1.469v-2.772h17.695l-1.695-2.713v-11.031c-4.752-2.52-8-7.513-8-13.256 0-8.271 6.729-15 15-15s15 6.729 15 15c0 5.743-3.248 10.737-8 13.256v11.031l-1.695 2.713h9.695v20h-59v-7c0-5.146 3.013-9.59 7.361-11.695-3.116-1.223-5.477-3.959-6.159-7.305h-.202c-2.206 0-4-1.794-4-4zm4 2v-4c-1.103 0-2 .897-2 2s.897 2 2 2zm15.598 10.614-1.339 2.232 1.27 1.27.961-3.154c-.291-.131-.59-.244-.892-.348zm-8.086.353.959 3.148 1.27-1.27-1.337-2.229c-.304.105-.602.221-.892.351zm4.488-.967c-.531 0-1.049.051-1.559.124l1.125 1.876h.867l1.125-1.875c-.513-.074-1.032-.125-1.558-.125zm26.804-4 3.514 5.622c.295.473 1.068.473 1.363 0l3.515-5.622zm9.196-10.875c-1.265.449-2.605.732-4 .825v8.05h4zm-5-1.125c7.168 0 13-5.832 13-13s-5.832-13-13-13-13 5.832-13 13 5.832 13 13 13zm-5 1.125v8.875h4v-8.051c-1.395-.092-2.735-.375-4-.824zm-16 14.875v16h34v-16h-8.945l-1.677 2.683c-.516.825-1.405 1.317-2.378 1.317s-1.862-.492-2.378-1.317l-1.677-2.683zm-3.729 1.978-1.8 5.907-3.471-3.471v9.586h-2v-9.586l-3.471 3.471-1.801-5.91c-2.853 1.989-4.728 5.29-4.728 9.025v5h4v-6h2v6h13v-12.53c-.528-.561-1.106-1.06-1.729-1.492zm3.729-19.978-8.142-.01-.739-.105c-1.775-.253-3.416-.909-4.824-1.884h-3.295c-1.654 0-3 1.346-3 3v7c0 4.411 3.589 8 8 8h3.999c4.412-.001 8.001-3.59 8.001-8.002zm4 6c0-1.103-.897-2-2-2v3.999.001c1.103 0 2-.897 2-2zm-28-7.896c0 1.405.311 2.793.877 4.076.359-.105.73-.18 1.123-.18v-1c0-2.757 2.243-5 5-5h1.104c-.892-1.065-1.594-2.308-2.053-3.684l1.897-.633c1.113 3.339 3.969 5.723 7.454 6.221l.668.096h.267c-1.967-1.354-3.495-3.311-4.286-5.684l1.897-.633c1.113 3.339 3.969 5.723 7.454 6.221l.667.096h3.931v4c.504 0 .981.104 1.425.274.377-1.074.575-2.214.575-3.35 0-4.356-1.143-8.658-3.304-12.44l-.139-.244c-3.207 1.178-6.492 1.76-9.846 1.76h-4.606c-5.572 0-10.105 4.533-10.105 10.104zm9 9.896h10v1c0 2.757-2.243 5-5 5s-5-2.243-5-5zm2.171 2c.413 1.164 1.525 2 2.829 2s2.416-.836 2.829-2zm-.171-4h2c0-2.206-1.794-4-4-4s-4 1.794-4 4h2c0-1.103.897-2 2-2s2 .897 2 2zm6 0c0-1.103.897-2 2-2s2 .897 2 2h2c0-2.206-1.794-4-4-4s-4 1.794-4 4z" fill="url(#SVGID_1_)"/></svg>