<svg id="_x33_0" enable-background="new 0 0 35.414 62" height="512" viewBox="0 0 35.414 62" width="512" xmlns="http://www.w3.org/2000/svg" xmlns:xlink="http://www.w3.org/1999/xlink"><linearGradient id="SVGID_1_" gradientUnits="userSpaceOnUse" x1="17.707" x2="17.707" y1="62" y2="0"><stop offset="0" stop-color="#9f2fff"/><stop offset="1" stop-color="#0bb1d3"/></linearGradient><path d="m14 21c0-1.654-1.346-3-3-3s-3 1.346-3 3 1.346 3 3 3 3-1.346 3-3zm-3 1c-.552 0-1-.449-1-1s.448-1 1-1 1 .449 1 1-.448 1-1 1zm12-4c-1.654 0-3 1.346-3 3s1.346 3 3 3 3-1.346 3-3-1.346-3-3-3zm0 4c-.552 0-1-.449-1-1s.448-1 1-1 1 .449 1 1-.448 1-1 1zm-10.697 6.332c.539 2.16 2.471 3.668 4.697 3.668s4.158-1.508 4.697-3.668l.584-2.332h-10.562zm7.412-.332c-.367 1.186-1.462 2-2.715 2s-2.348-.814-2.715-2zm-19.715-7c0 1.654 1.346 3 3 3h1.051c.391 5.102 3.734 9.379 8.325 11.135-.037.059-.068.121-.099.183-4.825 1.276-8.277 5.703-8.277 10.737v1.945h2.101c.399 1.956 1.943 3.5 3.899 3.899v8.101c0 1.103.897 2 2 2h4c.366 0 .705-.106 1-.278.295.172.634.278 1 .278h4c1.103 0 2-.897 2-2v-8.101c1.956-.399 3.5-1.943 3.899-3.899h2.101v-1.945c0-5.044-3.449-9.462-8.276-10.738-.032-.062-.062-.124-.099-.182 4.59-1.756 7.933-6.033 8.325-11.135h1.05c1.654 0 3-1.346 3-3 0-1.221-.735-2.269-1.784-2.737l.069-.276c.403-1.619 1.241-3.099 2.422-4.279l.707-.708-2.563-2.563 2.559-.853-.516-1.031c-2.637-5.276-7.94-8.553-13.838-8.553h-.432c-1.861 0-3.689.332-5.433.985l-5.425 2.035-1.012.112c-4.99.555-8.754 4.76-8.754 9.781 0 1.521.359 3.042 1.039 4.401l.532 1.065c-.931.509-1.571 1.487-1.571 2.621zm2 0c0-.551.448-1 1-1h1v2h-1c-.552 0-1-.449-1-1zm18.874 19.62-3.443 2.755 1.71-3.419c.146.027.295.044.445.044.385 0 .745-.099 1.068-.26zm1.126 15.101v.835c-.591-.344-1.268-.556-2-.556s-1.409.212-2 .556v-1.142c0-.645.251-1.251.707-1.707l-1.414-1.415c-.834.834-1.293 1.942-1.293 3.122v1.142c-.591-.344-1.268-.556-2-.556s-1.409.212-2 .556v-.835l2.316-.772-.633-1.897-1.683.56v-1.612h10v1.612l-1.684-.561-.633 1.897zm-5.45-16.857.45-.45.45.45-.45.9zm-2.55-1.278v-1.172c0-.228.186-.414.414-.414.109 0 .216.044.293.121l.879.879-.88.879c-.235.238-.706.045-.706-.293zm5.293.293-.879-.879.88-.879c.235-.237.706-.045.706.293v1.172c0 .338-.469.531-.707.293zm-5.947 1.861c.323.161.683.26 1.068.26.15 0 .299-.017.445-.045l1.71 3.419-3.443-2.755zm-1.515-2.184-.956 3.824 5.125 4.101v4.519h-4v-5c0-1.18-.459-2.288-1.293-3.122l-1.414 1.415c.456.456.707 1.062.707 1.707v1h-4c.023-3.767 2.399-7.112 5.831-8.444zm-3.647 10.444h1.816v1.816c-.847-.302-1.514-.969-1.816-1.816zm3.816 12c0-1.103.897-2 2-2 1.101 0 1.997.894 2 1.995v.005zm6 0c0-1.103.897-2 2-2 1.099 0 1.994.892 2 1.99v.01zm6-10.184v-1.816h1.816c-.302.847-.969 1.514-1.816 1.816zm4-3.816h-4v-1c0-.645.251-1.251.707-1.707l-1.414-1.415c-.834.834-1.293 1.942-1.293 3.122v5h-4v-4.519l5.126-4.101-.957-3.826c3.434 1.332 5.808 4.673 5.831 8.446zm-11-12c-6.065 0-11-4.935-11-11v-6.301c0-.699.372-1.356.971-1.716l1.738-1.042c1.122 1.034 2.501 1.796 4.052 2.141l5.47 1.216-.501-3.008c3.56.647 7.006 1.77 10.271 3.342v5.368c-.001 6.065-4.936 11-11.001 11zm14-12h-1v-2h1c.552 0 1 .449 1 1s-.448 1-1 1zm-22.025-16.88.333-.037.744 2.233 1.896-.633-.703-2.109 4.649-1.717c1.518-.568 3.109-.857 4.73-.857h.432c4.746 0 9.049 2.437 11.487 6.432l-3.395 1.131 3.469 3.469c-1.083 1.296-1.862 2.824-2.272 4.47l-.075.301-.828-2.9c-1.026-3.59-3.604-6.445-7.07-7.832l-.742 1.857c2.794 1.117 4.894 3.379 5.802 6.233-3.213-1.401-6.584-2.377-10.048-2.947l-.397-2.38-1.973.329.756 4.538-2.575-.572c-2.638-.586-4.685-2.677-5.214-5.326l-1.961.393c.235 1.174.714 2.254 1.362 3.209l-1.44.864c-1.198.719-1.942 2.033-1.942 3.43v1.301h-.382l-.79-1.581c-.542-1.082-.828-2.294-.828-3.506 0-4.001 2.998-7.351 6.975-7.793z" fill="url(#SVGID_1_)"/></svg>