<svg id="display-triangle" enable-background="new 0 0 300 300" height="512" viewBox="0 0 300 300" width="512" xmlns="http://www.w3.org/2000/svg" xmlns:xlink="http://www.w3.org/1999/xlink"><linearGradient id="SVGID_1_" gradientUnits="userSpaceOnUse" x1="68.961" x2="238.321" y1="221.366" y2="52.005"><stop offset="0" stop-color="#107eff"/><stop offset="1" stop-color="#8f16ff"/></linearGradient><g><path d="m246.484 209.172-2.828 2.828 2.828 2.828c1.562 1.562 1.562 4.094 0 5.656-.781.781-1.805 1.172-2.828 1.172s-2.047-.391-2.828-1.172l-2.828-2.828-2.828 2.828c-.781.781-1.805 1.172-2.828 1.172s-2.047-.391-2.828-1.172c-1.562-1.562-1.562-4.094 0-5.656l2.828-2.828-2.828-2.828c-1.562-1.562-1.562-4.094 0-5.656s4.094-1.562 5.656 0l2.828 2.828 2.828-2.828c1.562-1.562 4.094-1.562 5.656 0s1.563 4.093 0 5.656zm-174.484 4.298c-2.501 0-4.529 2.028-4.529 4.53 0 2.501 2.028 4.529 4.529 4.529s4.529-2.028 4.529-4.529c0-2.502-2.028-4.53-4.529-4.53zm49.734-136.581c-12.293.791-23.77 2.084-34.109 3.846-2.176.371-3.641 2.438-3.27 4.615.332 1.951 2.023 3.328 3.938 3.328.223 0 .449-.018.676-.057 10.066-1.715 21.266-2.977 33.281-3.748 2.203-.143 3.875-2.045 3.734-4.248-.144-2.203-1.949-3.883-4.25-3.736zm87.371 3.312c-11.086-1.744-23.316-2.965-36.352-3.629-2.234-.129-4.086 1.582-4.199 3.791-.109 2.205 1.586 4.086 3.793 4.197 12.754.65 24.703 1.842 35.516 3.543.211.033.418.049.625.049 1.938 0 3.637-1.406 3.949-3.379.34-2.181-1.148-4.228-3.332-4.572zm-42.109-7.881c8.734.336 17.246.932 25.297 1.77.141.016.281.021.418.021 2.023 0 3.762-1.529 3.973-3.586.23-2.197-1.363-4.164-3.562-4.393-8.223-.855-16.91-1.465-25.82-1.805-.051-.004-.102-.004-.156-.004-2.137 0-3.91 1.691-3.992 3.846-.088 2.21 1.635 4.067 3.842 4.151zm-51.055-3.025c-.199-2.201-2.066-3.781-4.348-3.623-16.926 1.537-31.984 4.092-43.547 7.385-2.125.605-3.355 2.818-2.75 4.943.5 1.758 2.105 2.906 3.844 2.906.363 0 .734-.051 1.102-.154 11.086-3.16 25.637-5.619 42.078-7.111 2.2-.202 3.821-2.147 3.621-4.346zm4.887 147.877c-1.562-1.562-4.094-1.562-5.656 0s-1.562 4.094 0 5.656l2.828 2.828v22.344c0 2.209 1.789 4 4 4s4-1.791 4-4v-24c0-1.061-.422-2.078-1.172-2.828zm54.344 0-4 4c-.75.75-1.172 1.768-1.172 2.828v24c0 2.209 1.789 4 4 4s4-1.791 4-4v-22.344l2.828-2.828c1.562-1.562 1.562-4.094 0-5.656s-4.094-1.563-5.656 0zm82.828-141.172v92c0 15.094-34.754 21.988-55.469 24.754-.18.023-.355.035-.531.035-.965 0-1.902-.348-2.633-.99-.871-.76-1.367-1.857-1.367-3.01v-42.015c-6.374-.778-13.071-1.39-20-1.841v9.067c0 11.232-6.199 21.373-16 26.535v7.465h3.898c15.497 0 28.102 12.605 28.102 28.1v31.9c0 2.209-1.789 4-4 4s-4-1.791-4-4v-31.9c0-11.082-9.016-20.1-20.102-20.1h-35.797c-11.085 0-20.101 9.018-20.101 20.1v31.9c0 2.209-1.789 4-4 4s-4-1.791-4-4v-31.9c0-15.494 12.605-28.1 28.102-28.1h3.898v-7.465c-9.801-5.162-16-15.303-16-26.535v-8.798c-5.505.417-10.855.938-16 1.566v42.021c0 1.152-.496 2.25-1.367 3.01-.863.76-1.992 1.107-3.164.955-20.715-2.766-55.469-9.66-55.469-24.754v-92c0-20.543 64.586-28 108-28s108 7.457 108 28zm-164 24.262c-8.574-1.252-18.844-3.177-28-5.975v41.713c0 2.209-1.789 4-4 4s-4-1.791-4-4v-44.558c-2.955-1.216-5.702-2.532-8-4.01v80.568c0 3.824 12.043 11.4 44 16.184zm75.362 58.768c-5.445 5.53-13.006 8.97-21.362 8.97s-15.917-3.44-21.362-8.97c1.588 6.779 6.272 12.514 12.901 15.279 1.492.621 2.461 2.076 2.461 3.691v10h12v-10c0-1.615.969-3.07 2.461-3.691 6.628-2.765 11.312-8.501 12.901-15.279zm80.638-71.598c-10.621 6.834-29.699 10.742-44 12.83v59.912c13.439-2.015 24.654-4.718 32.598-7.884 2.035-.822 4.375.178 5.195 2.232.82 2.053-.18 4.379-2.234 5.197-8.735 3.484-20.996 6.413-35.559 8.536v15.929c31.957-4.783 44-12.359 44-16.184zm0-11.432c0-6.98-34.344-20-100-20s-100 13.02-100 20c0 3.996 13.176 12.096 48.531 16.816 1.984.266 3.469 1.961 3.469 3.965v41.936c5.161-.614 10.499-1.133 16-1.539v-10.213c0-10.457 8.508-18.965 18.965-18.965h13.25c7.418 0 13.656 5.143 15.34 12.051 6.961.598 12.445 6.455 12.445 13.57v3.291c6.92.441 13.601 1.053 20 1.814v-41.945c0-2.004 1.484-3.699 3.469-3.965 35.355-4.72 48.531-12.82 48.531-16.816zm-81.215 18c.715 1.238.715 2.762 0 4s-2.035 2-3.465 2h-34.64c-1.43 0-2.75-.762-3.465-2s-.715-2.762 0-4l17.32-30c1.43-2.477 5.5-2.477 6.93 0zm-10.394-2-10.391-18-10.391 18zm55.609 32c0-8.822 7.176-16 16-16s16 7.178 16 16-7.176 16-16 16-16-7.178-16-16zm8 0c0 4.412 3.59 8 8 8s8-3.588 8-8-3.59-8-8-8-8 3.588-8 8zm-142 41.47c-2.501 0-4.529 2.028-4.529 4.53 0 2.501 2.028 4.529 4.529 4.529s4.529-2.028 4.529-4.529c0-2.502-2.028-4.53-4.529-4.53zm0-2.941c2.501 0 4.529-2.028 4.529-4.529 0-2.502-2.028-4.53-4.529-4.53s-4.529 2.028-4.529 4.53c0 2.501 2.028 4.529 4.529 4.529z" fill="url(#SVGID_1_)"/></g></svg>