<svg id="_x33_0" enable-background="new 0 0 60.414 62" height="512" viewBox="0 0 60.414 62" width="512" xmlns="http://www.w3.org/2000/svg" xmlns:xlink="http://www.w3.org/1999/xlink"><linearGradient id="SVGID_1_" gradientUnits="userSpaceOnUse" x1="30.207" x2="30.207" y1="62" y2="0"><stop offset="0" stop-color="#9f2fff"/><stop offset="1" stop-color="#0bb1d3"/></linearGradient><path d="m12.414 17c0 .552-.448 1-1 1s-1-.448-1-1 .448-1 1-1 1 .448 1 1zm7-1c-.552 0-1 .448-1 1s.448 1 1 1 1-.448 1-1-.448-1-1-1zm-5.828 6h-1.172v2h1.172c2.092 0 4.058-.814 5.535-2.293l-1.414-1.414c-1.101 1.101-2.564 1.707-4.121 1.707zm-13.586-9 3.127-3.127-2.229-3.344 5.135-2.054-2.237-4.475h13.91c5.904 0 10.708 4.804 10.708 10.708 0 1.655-.392 3.311-1.131 4.79l-.44.881c.931.51 1.571 1.487 1.571 2.621 0 1.654-1.346 3-3 3h-1.525c-.848 2.387-2.667 4.317-4.989 5.297l.271.813c4.48.811 8.462 3.417 10.996 7.219l1.246 1.869 1.246-1.869c.809-1.214 1.78-2.291 2.854-3.241l-1.1-.367v-18.721c0-7.168 5.832-13 13-13s13 5.832 13 13v18.721l-2.016.672c1.275 1.667 2.016 3.737 2.016 5.944v2.54c0 2.109-1.083 4.081-2.814 5.233.23.862.478 1.721.762 2.574l.196.586-.438.437c-1.104 1.104-2.357 2-3.707 2.69v7.603c0 1.103-.897 2-2 2h-4c-.366 0-.705-.106-1-.278-.295.172-.634.278-1 .278h-4c-1.103 0-2-.897-2-2v-7.603c-1.35-.69-2.603-1.587-3.707-2.69l-.435-.437.196-.586c.903-2.71 1.52-5.469 1.874-8.259l-3.08 2.2-.373 1.117c-.45 1.35-1.709 2.258-3.133 2.258-.159 0-.289-.009-.414-.023-.077.005-.15.023-.229.023-1.461 0-2.72-.908-3.17-2.258l-.373-1.117-5.154-3.682v21.057c0 1.103-.897 2-2 2h-4c-.366 0-.705-.106-1-.278-.295.172-.634.278-1 .278h-4c-1.103 0-2-.897-2-2v-13.289c-2.386-.931-4-3.218-4-5.834v-2.597c0-4.551 2.94-8.622 7.213-10.081l.301-.903c-2.322-.979-4.141-2.909-4.989-5.296h-1.525c-1.654 0-3-1.346-3-3 0-.977.476-1.837 1.201-2.385zm6.473 7c-.037-.329-.059-.662-.059-1v-1h-1c-.552 0-1 .449-1 1s.448 1 1 1zm9.994 11.5 1.477.984.948-2.372c-.089-.017-.176-.037-.265-.052zm-4.203-1.398c-.097.033-.197.064-.292.1l.913 2.282 1.477-.984zm-3.85 14.392v-4.494h-2v.877c0 1.503.781 2.85 2 3.617zm6 7.506h-4v4.556c.591-.344 1.268-.556 2-.556s1.409.212 2 .556zm2 4.556c.591-.344 1.268-.556 2-.556s1.409.212 2 .556v-4.556h-4zm4-12.556h-10v6h4v-2.586c0-.645-.251-1.251-.707-1.707l1.414-1.415c.834.833 1.293 1.942 1.293 3.122v2.586h4zm-6 16v-.01c-.006-1.099-.901-1.99-2-1.99-1.103 0-2 .897-2 2zm6 0v-.01c-.006-1.099-.901-1.99-2-1.99-1.103 0-2 .897-2 2zm2.707-25.292c-.456.455-.707 1.062-.707 1.707v.071l1.511 1.079 2.544-3.561c-1.593-1.538-3.519-2.688-5.624-3.389l-1.961 4.901-3.471-2.314-3.471 2.314-1.751-4.377c-2.232 1.533-3.674 4.072-3.765 6.861h1.988v-1.586c0-.645-.251-1.251-.707-1.707l1.414-1.415c.834.833 1.293 1.942 1.293 3.122v5.586h10v-5.586c0-1.18.459-2.288 1.293-3.122zm19.293 18.525v3.323c.591-.344 1.268-.556 2-.556s1.409.212 2 .556v-2.588c-1.378-.061-2.72-.307-4-.735zm4 6.767c0-1.103-.897-2-2-2s-2 .897-2 2zm6 0c0-1.103-.897-2-2-2s-2 .897-2 2zm0-6.767c-1.279.428-2.622.674-4 .735v2.588c.591-.344 1.268-.556 2-.556s1.409.212 2 .556zm3.855-4.522c-1.78-5.596-2.44-11.392-1.984-17.247-.381-.203-.779-.379-1.199-.519l-.117-.039-.109.435c-.391 1.566-1.792 2.659-3.406 2.659-.742 0-1.449-.229-2.04-.652-.591.423-1.298.652-2.04.652-1.614 0-3.015-1.093-3.405-2.659l-.168-.67c-.437.152-.863.327-1.282.518.501 5.945-.15 11.833-1.96 17.522 2.336 2.125 5.335 3.289 8.512 3.289h.686c3.178 0 6.177-1.164 8.512-3.289zm-15.855-29.711c0 3.86 3.141 7 7 7s7-3.14 7-7v-7h-14zm12-11v2h1.899c-.465-2.279-2.484-4-4.899-4h-4c-2.415 0-4.435 1.721-4.899 4h1.899v-2h2v2h2v-2h2v2h2v-2zm-3.766 23.764c.239.152.516.236.806.236.694 0 1.297-.47 1.466-1.144l.146-.585-.381-.127-.857.856c-.341.341-.744.595-1.18.764zm-2.799-3.909-.292.875.856.856c.535.534 1.465.535 2 0l.856-.856-.291-.875c-.509.089-1.029.145-1.564.145-.534 0-1.055-.056-1.565-.145zm-2.117 2.297.176.703c.169.675.772 1.145 1.466 1.145.29 0 .567-.084.806-.236-.436-.169-.839-.423-1.18-.764l-.917-.917c-.118.021-.234.046-.351.069zm14.682 8.185c0-2.087-.829-4.022-2.219-5.445-.182 3.734.117 7.438.891 11.073.828-.797 1.329-1.909 1.329-3.088v-2.54zm-21.004-7.726c1.877-1.235 3.999-2.094 6.246-2.501l.271-.813c-3.236-1.365-5.514-4.57-5.514-8.297v-7-1c0-3.86 3.141-7 7-7h4c3.859 0 7 3.14 7 7v1 7c0 3.727-2.277 6.932-5.514 8.297l.305.913 2.514.838c1.174.391 2.231.993 3.144 1.749l1.551-.517v-17.28c0-6.065-4.935-11-11-11s-11 4.935-11 11v17.279zm-4.794 8.389 1.244 1.865c.046.069.081.143.122.215l4.618-3.298c.118-1.838.112-3.688-.007-5.545-1.675 1.087-3.137 2.505-4.267 4.201zm-4.112-2.562c-.209-.314-.442-.607-.673-.902l-2.279 3.19 3.708 2.648.578 1.734c.178.534.675.892 1.236.892.756 0 1.34-.584 1.34-1.303 0-.258-.076-.508-.219-.723zm-11.525-8.583c-.509.089-1.03.145-1.565.145-.534 0-1.055-.056-1.564-.145l-.245.737 1.81 1.207 1.81-1.207zm5.435-14.028c0-.521-.392-.949-.91-.996l-5.59-.508c-1.179-.107-2.301-.452-3.309-.999l-3.508 1.169c-.409.136-.684.518-.684.949v5.558c0 3.86 3.141 7 7 7s7-3.14 7-7v-5.173zm4 5.173c0-.551-.448-1-1-1h-1v1c0 .338-.022.671-.059 1h1.059c.552 0 1-.449 1-1zm-20.713-8.873-2.873 2.873 3 3h.586v-2.559c0-1.293.824-2.437 2.051-2.846l2.19-.73c-.395-.396-.756-.834-1.073-1.31l1.664-1.109c1.103 1.654 2.87 2.706 4.85 2.885l5.59.508c1.556.142 2.729 1.426 2.729 2.988v2.173h.382l.698-1.397c.602-1.202.92-2.549.92-3.895-.001-4.802-3.907-8.708-8.709-8.708h-10.674l1.763 3.525-4.865 1.946zm46.32 29.852c.257.515.393 1.089.393 1.663 0 1.164-.556 2.275-1.487 2.974l-3.513 2.635-3.513-2.635c-.932-.698-1.487-1.809-1.487-2.973 0-.573.136-1.148.393-1.662l.178-.356c.5-1.003 1.507-1.625 2.626-1.625.651 0 1.291.222 1.803.619.512-.397 1.151-.619 1.803-.619 1.119 0 2.126.622 2.627 1.624zm-1.607 1.663c0-.265-.063-.53-.182-.769l-.178-.355c-.27-.541-1.073-.67-1.501-.244l-1.14 1.14-1.14-1.14c-.173-.174-.415-.274-.662-.274-.357 0-.679.199-.838.518l-.178.355c-.119.238-.182.503-.182.768 0 .538.257 1.051.687 1.373l2.313 1.735 2.313-1.735c.431-.322.688-.835.688-1.372zm-7.28-23.642h8.561l-.825 3.302c-.397 1.589-1.818 2.698-3.456 2.698s-3.059-1.109-3.455-2.698zm2.56 2 .204.817c.175.697.798 1.183 1.516 1.183s1.341-.486 1.516-1.183l.204-.817zm-2.28-3.585c.535-.535 1.465-.535 2 0l.293.293 1.414-1.414-.293-.294c-1.291-1.289-3.537-1.29-4.828 0l-.293.293 1.414 1.414zm6 0c.535-.535 1.465-.535 2 0l.293.293 1.414-1.414-.293-.294c-1.291-1.289-3.537-1.29-4.828 0l-.293.293 1.414 1.414z" fill="url(#SVGID_1_)"/></svg>