<svg id="_x33_0" enable-background="new 0 0 62 62" height="512" viewBox="0 0 62 62" width="512" xmlns="http://www.w3.org/2000/svg" xmlns:xlink="http://www.w3.org/1999/xlink"><linearGradient id="SVGID_1_" gradientUnits="userSpaceOnUse" x1="31" x2="31" y1="62" y2="0"><stop offset="0" stop-color="#9f2fff"/><stop offset="1" stop-color="#0bb1d3"/></linearGradient><path d="m16 27c0-1.654-1.346-3-3-3s-3 1.346-3 3 1.346 3 3 3 3-1.346 3-3zm-3 1c-.551 0-1-.449-1-1s.449-1 1-1 1 .449 1 1-.449 1-1 1zm13-1c0-1.654-1.346-3-3-3s-3 1.346-3 3 1.346 3 3 3 3-1.346 3-3zm-3 1c-.551 0-1-.449-1-1s.449-1 1-1 1 .449 1 1-.449 1-1 1zm-8.455 7.302c.396 1.589 1.817 2.698 3.455 2.698s3.059-1.109 3.455-2.698l.826-3.302h-8.562zm5.174-1.302-.205.817c-.173.697-.796 1.183-1.514 1.183s-1.341-.486-1.515-1.183l-.204-.817zm-10.119-19.2-1.2-1.6c2.752-2.064 6.161-3.2 9.6-3.2s6.848 1.136 9.6 3.2l-1.2 1.6c-2.408-1.805-5.391-2.8-8.4-2.8s-5.992.995-8.4 2.8zm10.986 2.277.246.368-1.663 1.11-.246-.369c-1.009-1.513-2.514-2.663-4.238-3.238l.632-1.897c2.144.715 4.015 2.145 5.269 4.026zm7 1 .246.368-1.663 1.11-.246-.369c-1.009-1.513-2.514-2.663-4.238-3.238l.632-1.897c2.144.715 4.015 2.145 5.269 4.026zm12.414 40.923c0-1.654-1.346-3-3-3s-3 1.346-3 3 1.346 3 3 3 3-1.346 3-3zm-4 0c0-.551.449-1 1-1s1 .449 1 1-.449 1-1 1-1-.449-1-1zm12 0c0-1.654-1.346-3-3-3s-3 1.346-3 3 1.346 3 3 3 3-1.346 3-3zm-4 0c0-.551.449-1 1-1s1 .449 1 1-.449 1-1 1-1-.449-1-1zm12 0c0-1.654-1.346-3-3-3s-3 1.346-3 3 1.346 3 3 3 3-1.346 3-3zm-4 0c0-.551.449-1 1-1s1 .449 1 1-.449 1-1 1-1-.449-1-1zm6-21h-22.458c-.334-1.471-.851-2.896-1.542-4.237v-11.763c0-4.78-2.118-9.066-5.453-12h11.453v2c0 1.103.897 2 2 2h6v4h-6c-1.103 0-2 .897-2 2v12c0 1.103.897 2 2 2h14c1.103 0 2-.897 2-2v-12c0-1.103-.897-2-2-2h-6v-4h6c1.103 0 2-.897 2-2v-10c0-1.103-.897-2-2-2h-14c-1.103 0-2 .897-2 2v6h-14.271c-2.293-1.271-4.927-2-7.729-2-8.822 0-16 7.178-16 16v11.76c-1.306 2.532-2 5.373-2 8.24 0 9.925 8.075 18 18 18 7.819 0 14.471-5.02 16.95-12h23.05c2.206 0 4-1.794 4-4v-2c0-2.206-1.794-4-4-4zm-1.999-6h-2.001v-6h-2v6h-2v-10h-2v10h-2v-6h-2v6h-2v-12h14zm-14.001-30h14l.001 10h-14.001zm-38 20c0-7.72 6.28-14 14-14s14 6.28 14 14v12.938c0 4.126-1.962 7.931-5.255 10.356-1.12-.989-2.456-1.731-3.922-2.128l-.496-1.986c4.482-1.741 7.673-6.09 7.673-11.18v-6.182c0-2.107-1.647-3.861-3.75-3.992l-8.197-.512c-2.879-.18-5.522-1.607-7.253-3.914l-1.6 1.2c.466.622.988 1.191 1.556 1.702l-2.332 1c-1.472.631-2.424 2.074-2.424 3.676v7.022c0 5.09 3.191 9.439 7.674 11.18l-.496 1.986c-1.466.397-2.803 1.139-3.922 2.128-3.294-2.425-5.256-6.23-5.256-10.356zm18.707 25.293-1.414 1.414c.449.449.707 1.072.707 1.707v.166c0 .197-.024.394-.072.585l-.587 2.35c-1.063.311-2.182.485-3.341.485s-2.278-.174-3.34-.485l-.587-2.351c-.049-.19-.073-.387-.073-.584v-.166c0-.635.258-1.258.707-1.707l-1.414-1.414c-.834.833-1.293 1.942-1.293 3.121v.166c0 .361.044.721.132 1.071l.233.933c-1.451-.778-2.719-1.849-3.74-3.128.932-2.084 2.75-3.667 4.94-4.304l1.009 1.513c.558.835 1.491 1.335 2.496 1.335h1.859c1.005 0 1.938-.5 2.496-1.336l1.009-1.513c2.19.637 4.008 2.22 4.94 4.304-1.02 1.279-2.289 2.35-3.739 3.128l.233-.932c.088-.35.132-.711.132-1.071v-.166c0-1.179-.459-2.288-1.293-3.121zm-16.12-1.6c.408.39.842.755 1.297 1.1-.181.242-.35.491-.508.75-.311-.59-.579-1.207-.789-1.85zm11.413-5.693c-5.514 0-10-4.486-10-10v-7.022c0-.801.476-1.522 1.212-1.838l3.413-1.463c1.593.946 3.405 1.515 5.302 1.633l8.197.512c1.052.066 1.876.943 1.876 1.996v6.182c0 5.514-4.486 10-10 10zm0 2c.825 0 1.63-.084 2.408-.243l.514 2.057-1.161 1.741c-.185.278-.496.445-.831.445h-1.86c-.335 0-.646-.167-.832-.445l-1.161-1.741.514-2.057c.779.159 1.584.243 2.409.243zm10.116 4.793c.455-.345.89-.711 1.297-1.1-.21.643-.478 1.259-.789 1.85-.158-.258-.328-.508-.508-.75zm-10.116 11.207c-8.822 0-16-7.178-16-16 0-1.21.144-2.413.413-3.585.338 1.416.881 2.764 1.605 4.01.228 7.511 6.432 13.575 13.982 13.575s13.754-6.065 13.982-13.575c.725-1.245 1.267-2.593 1.605-4.009.268 1.172.413 2.374.413 3.584 0 8.822-7.178 16-16 16zm17.883-18h4.117v6h-4.464c.294-1.289.464-2.624.464-4 0-.67-.043-1.337-.117-2zm24.117 4c0 1.103-.897 2-2 2h-16v-6h16c1.103 0 2 .897 2 2zm-12-38h-4v-2h4zm2-2h4v2h-4zm-6 4h10v2h-10z" fill="url(#SVGID_1_)"/></svg>