<svg id="_x33_0" enable-background="new 0 0 62.5 62" height="512" viewBox="0 0 62.5 62" width="512" xmlns="http://www.w3.org/2000/svg" xmlns:xlink="http://www.w3.org/1999/xlink"><linearGradient id="SVGID_1_" gradientUnits="userSpaceOnUse" x1="31.25" x2="31.25" y1="62" y2="0"><stop offset="0" stop-color="#9f2fff"/><stop offset="1" stop-color="#0bb1d3"/></linearGradient><path d="m18.25 6h-2v-2h2zm4-2h-2v2h2zm4 0h-2v2h2zm18 10v16c0 1.103-.897 2-2 2h-22c-1.103 0-2-.897-2-2v-16c0-1.103.897-2 2-2h22c1.103 0 2 .897 2 2zm-24 16h4.479l5.841-8.344c.726-1.037 1.914-1.656 3.18-1.656s2.454.619 3.18 1.656l5.321 7.602-.001-15.258h-22zm15.041-7.198c-.352-.502-.928-.802-1.541-.802s-1.189.3-1.541.802l-5.038 7.198h13.159zm-1.041 13.198v2c0 1.103-.897 2-2 2h-2c-1.103 0-2-.897-2-2v-2c0-1.103.897-2 2-2h2c1.103 0 2 .897 2 2zm-1.999 2-.001-2h-2v2zm9.999-2v2c0 1.103-.897 2-2 2h-2c-1.103 0-2-.897-2-2v-2c0-1.103.897-2 2-2h2c1.103 0 2 .897 2 2zm-1.999 2-.001-2h-2v2zm-14.001-2v2c0 1.103-.897 2-2 2h-2c-1.103 0-2-.897-2-2v-2c0-1.103.897-2 2-2h2c1.103 0 2 .897 2 2zm-1.999 2-.001-2h-2v2zm-2.001-19c0-1.654 1.346-3 3-3s3 1.346 3 3-1.346 3-3 3-3-1.346-3-3zm2 0c0 .551.448 1 1 1s1-.449 1-1-.448-1-1-1-1 .449-1 1zm-16 17-8.25-11 8.25-11v6h4v-17c0-1.654 1.346-3 3-3h32c1.654 0 3 1.346 3 3v17h4v-6l8.25 11-8.25 11v-6h-4v12.08c3.386.488 6 3.401 6 6.92v6c0 3.86-3.141 7-7 7h-16c-.707 0-1.389-.107-2.033-.303-.639.187-1.295.303-1.967.303h-16c-3.859 0-7-3.14-7-7v-6c0-3.519 2.614-6.432 6-6.92v-12.08h-4zm40 6v-32h-34v32h15c.707 0 1.389.107 2.033.303.639-.187 1.295-.303 1.967-.303zm-19.889 18c-.587-.574-1.068-1.251-1.425-2h-13.686c-1.654 0-3-1.346-3-3v-6c0-1.654 1.346-3 3-3h16c1.654 0 3 1.346 3 3v6c0 .551.448 1 1 1h.889c.067-.328.111-.661.111-1v-6c0-2.757-2.243-5-5-5h-16c-2.757 0-5 2.243-5 5v6c0 2.757 2.243 5 5 5zm7.889-11v6c0 .337-.037.67-.085 1h13.085c.552 0 1-.449 1-1v-6c0-.551-.448-1-1-1h-13.08c.047.328.08.66.08 1zm-10 6v-6c0-.338.037-.67.085-1h-13.085c-.552 0-1 .449-1 1v6c0 .551.448 1 1 1h13.08c-.047-.328-.08-.66-.08-1zm23-11h-15.111c.587.574 1.068 1.251 1.425 2h13.686c1.654 0 3 1.346 3 3v6c0 1.654-1.346 3-3 3h-16c-1.654 0-3-1.346-3-3v-6c0-.551-.448-1-1-1h-.889c-.067.328-.111.66-.111 1v6c0 2.757 2.243 5 5 5h16c2.757 0 5-2.243 5-5v-6c0-2.757-2.243-5-5-5zm1-22v6h6v2l3.75-5-3.75-5v2zm-36-19v5h34v-5c0-.551-.448-1-1-1h-32c-.552 0-1 .449-1 1zm-8 25h6v-6h-6v-2l-3.75 5 3.75 5z" fill="url(#SVGID_1_)"/></svg>