<svg id="_x33_0" enable-background="new 0 0 62 62" height="512" viewBox="0 0 62 62" width="512" xmlns="http://www.w3.org/2000/svg" xmlns:xlink="http://www.w3.org/1999/xlink"><linearGradient id="SVGID_1_" gradientUnits="userSpaceOnUse" x1="31" x2="31" y1="62" y2="0"><stop offset="0" stop-color="#9f2fff"/><stop offset="1" stop-color="#0bb1d3"/></linearGradient><path d="m16.871 47.712-4.93-3.287c-.418-.278-.904-.425-1.406-.425-1.397 0-2.535 1.137-2.535 2.535v6.93c0 1.398 1.138 2.535 2.535 2.535.502 0 .988-.147 1.406-.426l4.93-3.287c.707-.471 1.129-1.26 1.129-2.109v-.356c0-.849-.422-1.638-1.129-2.11zm-.871 2.466c0 .179-.089.346-.238.445l-4.93 3.287c-.332.221-.832-.044-.832-.445v-6.93c0-.295.24-.535.535-.535.106 0 .209.031.297.09l4.93 3.287c.149.1.238.266.238.445zm43-50.178h-30c-1.654 0-3 1.346-3 3v5h-22c-1.103 0-2 .897-2 2v33.381c-1.261 1.899-2 4.174-2 6.619 0 6.617 5.383 12 12 12 3.542 0 6.721-1.552 8.919-4h25.766c1.126 2.361 3.53 4 6.315 4 3.859 0 7-3.14 7-7v-25.561c0-.432-.096-.866-.275-1.257l-1.008-2.182h.283c1.654 0 3-1.346 3-3v-20c0-1.654-1.346-3-3-3zm-33 10v6h-22v-6zm-14 50c-5.514 0-10-4.486-10-10s4.486-10 10-10 10 4.486 10 10-4.486 10-10 10zm10.376-4c1.027-1.768 1.624-3.813 1.624-6 0-6.617-5.383-12-12-12-3.075 0-5.874 1.172-8 3.081v-23.081h22v5c0 1.654 1.346 3 3 3h5.279l1.456 4.369c.327.975 1.237 1.631 2.265 1.631s1.938-.656 2.265-1.632l1.456-4.368h5.562l-1.007 2.183c-.18.39-.276.825-.276 1.256v25.561c0 .34.033.672.08 1zm28.033-32h5.182l1.846 4h-8.875zm.923-2 1.668-3.614 1.668 3.614zm-3.332 8h4v18h-4zm0 20h10v2h-10zm6-2v-18h4v18zm-1 12c-2.757 0-5-2.243-5-5v-1h10v1c0 2.757-2.243 5-5 5zm7-37c0 .551-.448 1-1 1h-1.206l-4.794-10.386-4.794 10.386h-7.927l-1.911 5.734c-.107.318-.629.317-.736.001l-1.911-5.735h-6.721c-.552 0-1-.449-1-1v-20c0-.551.448-1 1-1h30c.552 0 1 .449 1 1zm-10.514-14.242-4.244-4.244-1.242 1.243v-1.757h-6v1.758l-1.242-1.244-4.244 4.244 1.244 1.242h-1.758v6h1.758l-1.244 1.243 4.244 4.244 1.242-1.244v1.757h6v-1.758l1.242 1.244 4.244-4.244-1.244-1.242h1.758v-6h-1.758zm-1.486 5.257c-.711.085-1.326.545-1.605 1.22-.279.674-.17 1.434.272 1.998l-1.435 1.435c-.563-.441-1.322-.55-1.998-.272-.674.279-1.134.894-1.22 1.605h-2.029c-.086-.711-.546-1.326-1.22-1.605-.675-.279-1.434-.17-1.998.272l-1.435-1.435c.442-.563.552-1.323.272-1.998-.278-.675-.893-1.135-1.604-1.22v-2.029c.711-.085 1.326-.545 1.605-1.22.279-.674.17-1.434-.272-1.998l1.435-1.435c.563.442 1.323.552 1.998.272.674-.279 1.134-.894 1.22-1.605h2.029c.086.711.546 1.326 1.22 1.605.674.278 1.433.169 1.998-.272l1.435 1.435c-.442.563-.552 1.323-.272 1.998.279.675.895 1.135 1.605 1.22v2.029zm-7-6.015c-2.757 0-5 2.243-5 5s2.243 5 5 5 5-2.243 5-5-2.243-5-5-5zm0 8c-1.654 0-3-1.346-3-3s1.346-3 3-3 3 1.346 3 3-1.346 3-3 3zm-32-2h-2v-2h2zm4 0h-2v-2h2zm4 0h-2v-2h2zm11 36h2v2h-2zm6 0h2v2h-2zm6 0h2v2h-2zm-18-30h-14c-1.103 0-2 .897-2 2v12c0 1.103.897 2 2 2h14c1.103 0 2-.897 2-2v-12c0-1.103-.897-2-2-2zm-14 2h14l.001 11.115-3.623-5.797c-.516-.825-1.405-1.318-2.378-1.318s-1.862.493-2.378 1.318l-4.176 6.682h-1.446zm12.196 12h-8.393l3.514-5.622c.297-.474 1.068-.473 1.365 0zm-8.196-8h-2v-2h2zm20 10h-4v-2h4zm2-2h8v2h-8zm-6 4h14v2h-14zm0 4h14v2h-14zm0 4h14v2h-14z" fill="url(#SVGID_1_)"/></svg>