<svg id="Layer_5" enable-background="new 0 0 62 62" height="512" viewBox="0 0 62 62" width="512" xmlns="http://www.w3.org/2000/svg" xmlns:xlink="http://www.w3.org/1999/xlink"><linearGradient id="SVGID_1_" gradientUnits="userSpaceOnUse" x1="31" x2="31" y1="62" y2="0"><stop offset="0" stop-color="#9f2fff"/><stop offset="1" stop-color="#0bb1d3"/></linearGradient><path d="m54 6c1.103 0 2-.897 2-2v-2c0-1.103-.897-2-2-2h-52c-1.103 0-2 .897-2 2v2c0 1.103.897 2 2 2v48h8v8h36v-8h8v-18h8v-18h-8zm-52-4h52l.001 2h-52.001zm6 50v-6h2v6zm4 5.142c1.399.364 2.494 1.459 2.858 2.858h-2.858zm4.91 2.858c-.423-2.507-2.403-4.486-4.91-4.91v-9.09h8.009c-1.29 1.713-2.009 3.802-2.009 6 0 3.273 1.588 6.175 4.025 8zm7.09-11c0 1.654 1.346 3 3 3h2c.551 0 1 .449 1 1s-.449 1-1 1h-2c-.551 0-1-.449-1-1h-2c0 1.654 1.346 3 3 3v2h2v-2c1.654 0 3-1.346 3-3s-1.346-3-3-3h-2c-.551 0-1-.449-1-1s.449-1 1-1h2c.551 0 1 .449 1 1h2c0-1.654-1.346-3-3-3h4.274c1.731 1.522 2.726 3.685 2.726 6 0 4.411-3.589 8-8 8s-8-3.589-8-8c0-2.315.995-4.478 2.726-6h4.274c-1.654 0-3 1.346-3 3zm14 3c0-2.198-.719-4.287-2.009-6h8.009v9.09c-2.507.423-4.486 2.403-4.91 4.91h-5.116c2.438-1.825 4.026-4.727 4.026-8zm3.142 8c.364-1.399 1.459-2.494 2.858-2.858v2.858zm4.858-14h2v6h-2zm4 6v-8h-44v8h-2v-10h48v10zm2-12h-48v-34h48v12h-14v-2h-2v22h2v-2h14zm-14-16h22v2h-22zm0 10v-6h22v6zm22-12h-22v-2h22zm-54 16h28v-30h-28zm22-6h-4v-2h4zm-6 0h-4v-2h4zm0 2v2h-4v-2zm2 0h4v2h-4zm4-6h-4v-2h4zm-6 0h-4v-2h4zm-6 0h-4v-2h4zm-4 2h4v2h-4zm0 4h4v2h-4zm-4-24h24v26h-2v-12h-20v12h-2zm34-2h-6v6h6zm-2 4h-2v-2h2zm10-4h-6v6h6zm-2 4h-2v-2h2zm8 18h2v2h-2zm-4 0h2v2h-2zm-4 0h2v2h-2zm-18-18h-20v10h20zm-2 8h-16v-6h16z" fill="url(#SVGID_1_)"/></svg>