<svg width="1309" height="807" viewBox="0 0 1309 807" fill="none" xmlns="http://www.w3.org/2000/svg">
<path fill-rule="evenodd" clip-rule="evenodd" d="M434.406 376.691C435.725 376.691 436.795 377.97 436.795 379.547C436.795 381.067 435.8 382.31 434.546 382.397L434.406 382.402H331.742C272.392 382.402 230.245 438.827 236.656 509.059L236.865 511.192L256.298 696.392C256.463 697.956 255.534 699.384 254.225 699.58C252.962 699.769 251.806 698.744 251.578 697.268L251.557 697.102L232.123 511.902C224.374 438.024 268.027 377.905 329.863 376.71L331.742 376.691H434.406Z" fill="#FCFCFC"/>
<path fill-rule="evenodd" clip-rule="evenodd" d="M504.86 316.956C505.867 316.777 506.858 317.38 507.33 318.459L510.115 324.832C510.217 325.064 510.292 325.313 510.337 325.569L510.365 325.763L513.711 354.504C513.787 355.16 513.67 355.825 513.382 356.387L513.291 356.552L500.548 377.965C499.783 379.25 498.291 379.551 497.216 378.637C496.182 377.759 495.909 376.077 496.57 374.807L496.653 374.656L508.846 354.168L505.689 327.04L503.883 322.909L503.628 322.957C472.582 328.757 453.155 339.345 444.252 353.886L443.98 354.337C436.241 367.367 436.836 383.727 444.906 403.014C445.612 404.702 444.777 406.731 443.227 407.093C390.776 419.333 348.094 471.891 322.628 547.352C299.685 615.338 294.525 692.743 309.382 742.421L311.795 750.567C316.902 767.722 319.999 776.053 324.609 783.458C330.533 792.975 337.877 797.799 348.012 797.912C349.332 797.927 350.391 799.218 350.379 800.794C350.367 802.371 349.287 803.637 347.967 803.622C336.277 803.491 327.56 797.765 320.775 786.866L320.39 786.241C315.748 778.611 312.599 770.192 307.708 753.871L304.982 744.678C304.948 744.565 304.915 744.453 304.881 744.341C289.593 693.219 294.846 614.408 318.196 545.216C343.692 469.668 386.298 416.321 439.067 402.298L439.298 402.237L439.138 401.815C431.878 382.567 431.71 365.501 439.819 351.484L440.083 351.032C449.946 334.428 471.198 322.939 504.86 316.956Z" fill="#FCFCFC"/>
<path fill-rule="evenodd" clip-rule="evenodd" d="M534.919 453.303C534.919 453.113 534.919 452.922 534.919 452.732C538.663 453.208 542.326 453.208 545.91 449.591C554.671 440.55 557.778 437.79 557.778 437.79C557.778 437.79 558.574 438.932 560.008 440.836C561.76 437.029 563.512 433.032 565.344 429.035C527.512 394.012 498.601 376.311 498.601 376.311L496.45 374.503L482.592 394.774C482.592 394.774 505.211 413.332 534.919 453.303Z" fill="#5965E0"/>
<path fill-rule="evenodd" clip-rule="evenodd" d="M717.787 781.829C717.787 781.829 657.256 587.302 664.981 527.059C669.203 494.131 662.592 456.919 653.512 428.083L636.149 429.415L615.362 488.04C616.716 488.421 618.07 488.801 619.424 488.992C619.424 488.992 618.627 495.178 616.636 509.263C615.282 518.684 617.592 519.731 619.344 526.298C621.654 530.676 623.406 535.625 621.495 543.333C620.857 545.808 619.344 569.41 615.919 601.387C622.291 617.471 628.344 634.601 634.079 652.874C670.795 769.837 666.972 782.59 666.972 782.59L717.787 781.829Z" fill="#5965E0"/>
<path fill-rule="evenodd" clip-rule="evenodd" d="M641.455 323.518C641.883 322.026 643.242 321.231 644.49 321.742C668.692 331.649 685.585 347.294 696.608 367.721C704.597 382.527 708.85 397.937 711.668 417.41L711.783 418.217L713.396 419.687C790.506 490.251 845.605 569.817 882.217 653.298L883.332 655.855C897.096 687.596 907.467 718.318 914.917 747.351C920.154 767.763 923.407 785.12 925.158 798.814C925.357 800.372 924.461 801.829 923.157 802.067C921.852 802.305 920.633 801.235 920.434 799.676L920.248 798.249C918.49 785.047 915.334 768.457 910.348 749.025C902.981 720.313 892.718 689.91 879.089 658.482C842.434 573.953 786.704 493.37 708.138 422.077C707.651 421.636 707.325 420.988 707.226 420.268C704.507 400.58 700.425 385.333 692.591 370.815C682.155 351.475 666.135 336.638 642.941 327.144C641.693 326.633 641.028 325.01 641.455 323.518Z" fill="#FCFCFC"/>
<path fill-rule="evenodd" clip-rule="evenodd" d="M679.514 513.072C681.219 513.147 682.562 514.81 682.583 516.826L682.579 517.072L682.563 517.702C682.549 518.279 682.535 518.96 682.522 519.738C682.164 541.175 683.066 567.124 686.279 591.946C687.734 603.187 689.604 613.461 691.923 622.546C692.436 624.557 691.487 626.685 689.804 627.298C688.121 627.911 686.341 626.778 685.828 624.767C683.414 615.307 681.481 604.687 679.982 593.11C676.764 568.253 675.822 542.419 676.132 520.827L676.18 518.117L676.214 516.736C676.276 514.699 677.668 513.095 679.355 513.07L679.514 513.072Z" fill="#FCFCFC"/>
<path fill-rule="evenodd" clip-rule="evenodd" d="M707.194 419.042C707.751 423.134 708.229 426.846 708.627 430.082C713.486 467.959 703.052 493.179 696.123 510.595C714.68 494.892 727.264 465.009 733.556 442.263C725.99 435.03 715.556 426.465 707.194 419.042Z" fill="#FCFCFC"/>
<path fill-rule="evenodd" clip-rule="evenodd" d="M444.68 402.578C431.698 405.718 410.353 413.522 394.901 426.18C405.653 433.222 458.937 471.29 502.424 494.131C502.742 493.94 505.132 489.182 506.326 487.279C482.273 464.533 456.946 431.985 444.68 402.578Z" fill="#FCFCFC"/>
<path fill-rule="evenodd" clip-rule="evenodd" d="M479.097 248.217C480.37 247.803 481.683 248.701 482.03 250.222C482.364 251.689 481.678 253.201 480.486 253.678L480.07 253.826C479.942 253.873 479.783 253.933 479.594 254.008C478.944 254.264 478.216 254.581 477.428 254.963C475.176 256.056 472.924 257.436 470.836 259.116C462.042 266.192 458.879 275.887 464.283 289.533C467.675 298.106 472.412 301.745 478.458 301.71C483.275 301.682 488.625 299.376 494.474 295.408C495.621 294.63 497.08 295.11 497.731 296.481C498.383 297.852 497.981 299.595 496.833 300.374C490.335 304.783 484.293 307.386 478.482 307.42C470.561 307.465 464.14 302.534 459.963 291.974C453.448 275.523 457.563 262.912 468.167 254.38C470.551 252.461 473.091 250.904 475.631 249.672C477.163 248.929 478.371 248.454 479.097 248.217Z" fill="#FCFCFC"/>
<path fill-rule="evenodd" clip-rule="evenodd" d="M555.909 118.608C550.946 119.798 546.692 121.213 543.15 122.641L542.671 122.836C512.58 135.076 494.389 156.526 486.152 184.492C480.114 204.988 479.932 226.737 483.228 247.031C483.643 249.582 484.085 251.902 484.53 253.962L484.727 254.853L484.861 255.441C484.947 255.813 485.025 256.142 485.095 256.43L485.224 256.948C485.314 258.805 486.863 260.084 488.365 259.486L496.55 256.226L496.661 256.328C503.481 262.7 521.804 290.274 527.707 303.692C528.361 305.179 529.943 305.673 531.122 304.759L531.825 304.23L532.55 303.698C532.807 303.51 533.081 303.313 533.371 303.106L533.971 302.679C536.349 300.998 539.147 299.122 542.345 297.099C551.499 291.309 562.007 285.514 573.707 280.104L575.207 279.416C584.729 275.079 594.635 271.192 604.879 267.862L606.486 267.346L608.169 266.903C608.551 266.804 608.953 266.701 609.373 266.594L610.24 266.376C613.208 265.63 616.356 264.885 619.542 264.19C622.078 263.637 624.534 263.138 626.873 262.708L628.473 262.422C634.24 261.417 638.902 260.923 642.036 261.058C643.508 261.122 644.677 259.596 644.494 257.851C640.692 221.504 633.486 184.317 623.16 153.042C615.251 129.061 599.469 117.765 578.796 116.407C571.314 115.915 563.589 116.768 555.909 118.608ZM578.534 122.108C597.476 123.353 611.555 133.43 618.714 155.136L619.181 156.561C628.631 185.622 635.395 219.829 639.21 253.583L639.408 255.359L639.346 255.362C635.838 255.508 631.38 256.103 626.146 257.065C623.761 257.503 621.261 258.01 618.684 258.573C615.857 259.19 613.062 259.845 610.393 260.504L608.379 261.009C607.81 261.154 607.274 261.292 606.775 261.422L605.355 261.797L605.269 261.823C593.735 265.493 582.62 269.86 571.982 274.779C560.101 280.273 549.423 286.161 540.109 292.052L538.824 292.871C536.087 294.627 533.654 296.269 531.538 297.765L530.696 298.364L530.608 298.184C522.95 282.506 504.477 255.227 498.173 250.629L498.032 250.534C497.46 250.178 496.789 250.112 496.172 250.357L489.282 253.101C488.819 251.02 488.354 248.619 487.92 245.943C484.771 226.56 484.945 205.786 490.659 186.388C498.332 160.339 515.164 140.322 543.36 128.592L544.218 128.239C547.673 126.819 551.888 125.396 556.849 124.207C564.159 122.455 571.492 121.645 578.534 122.108Z" fill="#FCFCFC"/>
<path fill-rule="evenodd" clip-rule="evenodd" d="M496.169 250.264C496.838 249.996 497.571 250.095 498.173 250.534C504.414 255.086 522.582 281.867 530.376 297.615L530.696 298.269L531.538 297.67L532.537 296.969C534.751 295.429 537.279 293.748 540.109 291.957C549.423 286.066 560.101 280.178 571.982 274.684C582.113 269.999 592.678 265.815 603.624 262.256L605.269 261.727L606.403 261.423L608.369 260.913L609.245 260.691C612.245 259.935 615.427 259.179 618.651 258.473C620.871 257.987 623.034 257.542 625.116 257.147L626.151 256.954C633.038 255.686 638.58 255.058 642.387 255.258C643.485 255.315 644.409 256.261 644.625 257.55L644.737 258.25L644.959 259.728C645.01 260.081 645.063 260.455 645.118 260.849L645.3 262.187C645.603 264.463 645.902 266.976 646.185 269.692C647.857 285.758 648.335 302.429 646.889 318.062C646.837 318.626 646.782 319.187 646.725 319.746C646.565 321.311 645.373 322.425 644.063 322.233C642.753 322.042 641.821 320.618 641.981 319.053C642.036 318.516 642.089 317.976 642.139 317.434C643.539 302.307 643.073 286.057 641.443 270.396L641.275 268.831C641.022 266.52 640.758 264.378 640.492 262.429L640.284 260.937L640.044 260.943C636.829 261.03 632.526 261.574 627.41 262.5L626.878 262.597C624.529 263.03 622.06 263.532 619.512 264.09C616.73 264.699 613.978 265.346 611.35 265.999L608.954 266.603L607.026 267.106L606.446 267.261L604.879 267.766C594.635 271.096 584.729 274.984 575.207 279.321L573.707 280.009C562.007 285.419 551.499 291.213 542.345 297.004L541.087 297.805C538.615 299.391 536.399 300.88 534.452 302.245L533.371 303.011C533.081 303.218 532.807 303.415 532.55 303.603L531.3 304.528C531.224 304.586 531.164 304.631 531.122 304.664C529.943 305.578 528.361 305.084 527.707 303.597C521.863 290.313 503.846 263.155 496.869 256.43L496.551 256.131L483.393 261.397L487.818 272.093L491.213 280.254C493.758 286.356 496.289 292.392 498.75 298.216L502.158 306.254C509.353 323.153 514.796 335.474 517.774 341.439C527.292 360.429 532.901 366.086 554.419 376.218C561.65 379.562 570.865 381.45 580.318 381.45C581.637 381.45 582.707 382.728 582.707 384.305C582.707 385.882 581.637 387.16 580.318 387.16C570.297 387.16 560.499 385.153 552.68 381.537L550.697 380.593C530.213 370.744 523.702 364.122 514.272 345.558L513.673 344.369C510.66 338.336 505.296 326.205 498.198 309.546L496.115 304.645C492.876 297.004 489.487 288.927 486.087 280.763L483.167 273.74L477.898 260.985C477.282 259.486 477.872 257.693 479.15 257.08L479.284 257.021L496.169 250.264Z" fill="#FCFCFC"/>
<path fill-rule="evenodd" clip-rule="evenodd" d="M482.114 268.388C482.114 268.388 466.901 247.261 455.91 222.041C445.556 198.343 449.857 168.936 466.981 151.805C481.317 137.435 495.016 141.242 495.016 141.242C495.016 141.242 470.247 111.168 489.76 72.1484C496.609 58.444 507.999 48.5464 521.14 45.1203C553.158 36.7453 569.725 65.8672 569.725 65.8672C569.725 65.8672 588.123 -19.0241 667.132 4.38762C675.096 6.76687 685.61 16.8549 691.185 24.0878C724.875 67.961 661.477 150.759 622.928 167.318C580.636 185.591 553.397 184.639 536.751 176.074C548.778 180.452 549.176 261.06 482.114 268.388Z" fill="#FCFCFC"/>
<path fill-rule="evenodd" clip-rule="evenodd" d="M603.088 238.559C604.683 237.841 606.457 238.751 607.131 240.598L607.192 240.779L622.166 288.269C622.936 290.711 621.469 293.313 619.316 293.415L619.168 293.418L603.796 293.323C602.037 293.312 600.618 291.599 600.627 289.496C600.636 287.458 601.984 285.801 603.67 285.713L603.829 285.709L614.57 285.776L601.23 243.464C600.629 241.558 601.391 239.437 602.936 238.633L603.088 238.559Z" fill="#FCFCFC"/>
<path fill-rule="evenodd" clip-rule="evenodd" d="M596.008 330.724C600.186 330.724 603.574 326.677 603.574 321.683C603.574 316.69 600.186 312.642 596.008 312.642C591.829 312.642 588.441 316.69 588.441 321.683C588.441 326.677 591.829 330.724 596.008 330.724Z" fill="#FCFCFC"/>
<path fill-rule="evenodd" clip-rule="evenodd" d="M621.897 245.958C624.202 245.269 625.343 241.238 624.446 236.955C623.549 232.672 620.954 229.758 618.65 230.447C616.346 231.136 615.205 235.167 616.101 239.45C616.998 243.733 619.593 246.646 621.897 245.958Z" fill="#FCFCFC"/>
<path fill-rule="evenodd" clip-rule="evenodd" d="M581.364 257.198C583.669 256.509 584.81 252.478 583.913 248.195C583.016 243.912 580.421 240.998 578.117 241.687C575.812 242.376 574.671 246.407 575.568 250.69C576.465 254.973 579.06 257.887 581.364 257.198Z" fill="#FCFCFC"/>
<path fill-rule="evenodd" clip-rule="evenodd" d="M569.42 201.502C571.171 201.3 572.727 202.834 572.896 204.926C573.064 207.019 571.781 208.879 570.03 209.08C565.66 209.582 562.252 211.678 559.612 214.888C558.54 216.192 557.672 217.592 556.996 218.984L556.814 219.367C556.562 219.913 556.4 220.326 556.32 220.558L556.297 220.629C555.674 222.595 553.834 223.585 552.189 222.841C550.544 222.096 549.715 219.898 550.338 217.932C550.537 217.306 550.91 216.347 551.484 215.164C552.415 213.247 553.599 211.337 555.067 209.552C558.713 205.117 563.485 202.183 569.42 201.502Z" fill="#FCFCFC"/>
<path fill-rule="evenodd" clip-rule="evenodd" d="M609.278 188.259C612.177 187.056 615.173 186.535 618.104 187.132C621.721 187.868 624.789 190.272 626.923 194.46C627.839 196.255 627.362 198.598 625.86 199.691C624.357 200.785 622.397 200.216 621.482 198.42C620.326 196.153 618.868 195.01 617.034 194.637C615.321 194.289 613.34 194.633 611.367 195.451C610.856 195.664 610.389 195.89 609.98 196.113L609.622 196.317L609.557 196.358C608.012 197.363 606.077 196.68 605.236 194.833C604.395 192.987 604.966 190.675 606.512 189.67L606.786 189.498C607.378 189.139 608.226 188.695 609.278 188.259Z" fill="#FCFCFC"/>
<path fill-rule="evenodd" clip-rule="evenodd" d="M1079.3 536.196H769.636C765.574 536.196 762.07 539.527 761.114 544.285L718.026 762.034H605.804C605.804 762.034 599.592 800.387 635.831 800.387C654.229 800.387 1031.19 800.387 1031.19 800.387C1035.26 800.387 1038.76 797.056 1039.72 792.298L1087.82 549.044C1089.1 542.477 1084.96 536.196 1079.3 536.196Z" fill="#FCFCFC"/>
<path fill-rule="evenodd" clip-rule="evenodd" d="M956.406 213.761H953.937C951.707 213.761 949.955 211.667 949.955 209.002V201.484C949.955 198.819 951.707 196.726 953.937 196.726H956.406C958.636 196.726 960.389 198.819 960.389 201.484V209.002C960.389 211.667 958.636 213.761 956.406 213.761Z" fill="#5965E0"/>
<path fill-rule="evenodd" clip-rule="evenodd" d="M941.99 213.761H878.433C876.203 213.761 874.45 211.667 874.45 209.002V201.484C874.45 198.819 876.203 196.726 878.433 196.726H941.99C944.221 196.726 945.973 198.819 945.973 201.484V209.002C945.973 211.667 944.221 213.761 941.99 213.761Z" fill="#FCFCFC"/>
<path fill-rule="evenodd" clip-rule="evenodd" d="M948.523 292.847H878.514C876.284 292.847 874.532 290.753 874.532 288.088V280.57C874.532 277.905 876.284 275.812 878.514 275.812H948.523C950.753 275.812 952.505 277.905 952.505 280.57V288.088C952.505 290.753 950.674 292.847 948.523 292.847Z" fill="#FCFCFC"/>
<path fill-rule="evenodd" clip-rule="evenodd" d="M1011.2 266.485H898.185C895.955 266.485 894.203 264.391 894.203 261.726V254.208C894.203 251.543 895.955 249.45 898.185 249.45H1011.2C1013.43 249.45 1015.18 251.543 1015.18 254.208V261.726C1015.18 264.391 1013.43 266.485 1011.2 266.485Z" fill="#5965E0"/>
<path fill-rule="evenodd" clip-rule="evenodd" d="M1083.28 266.485H1025.94C1023.71 266.485 1021.96 264.391 1021.96 261.726V254.208C1021.96 251.543 1023.71 249.45 1025.94 249.45H1083.28C1085.51 249.45 1087.26 251.543 1087.26 254.208V261.726C1087.26 264.391 1085.51 266.485 1083.28 266.485Z" fill="#5965E0"/>
<path fill-rule="evenodd" clip-rule="evenodd" d="M1105.42 240.218H1102.96C1100.73 240.218 1098.97 238.124 1098.97 235.46V227.941C1098.97 225.276 1100.73 223.183 1102.96 223.183H1105.42C1107.65 223.183 1109.41 225.276 1109.41 227.941V235.46C1109.41 238.029 1107.65 240.218 1105.42 240.218Z" fill="#FCFCFC"/>
<path fill-rule="evenodd" clip-rule="evenodd" d="M995.592 240.123H878.433C876.203 240.123 874.45 238.029 874.45 235.364V227.846C874.45 225.181 876.203 223.088 878.433 223.088H995.592C997.822 223.088 999.575 225.181 999.575 227.846V235.364C999.575 238.029 997.822 240.123 995.592 240.123Z" fill="#FCFCFC"/>
<path fill-rule="evenodd" clip-rule="evenodd" d="M1032.55 213.761H968.991C966.76 213.761 965.008 211.667 965.008 209.002V201.484C965.008 198.819 966.76 196.726 968.991 196.726H1032.55C1034.78 196.726 1036.53 198.819 1036.53 201.484V209.002C1036.53 211.667 1034.7 213.761 1032.55 213.761Z" fill="#FCFCFC"/>
<path fill-rule="evenodd" clip-rule="evenodd" d="M1089.42 240.218H1009.13C1006.9 240.218 1005.15 238.124 1005.15 235.46V227.846C1005.15 225.181 1006.9 223.088 1009.13 223.088H1089.42C1091.65 223.088 1093.4 225.181 1093.4 227.846V235.46C1093.4 238.029 1091.65 240.218 1089.42 240.218Z" fill="#5965E0"/>
<path fill-rule="evenodd" clip-rule="evenodd" d="M941.99 384.495H878.433C876.203 384.495 874.45 382.402 874.45 379.737V372.218C874.45 369.554 876.203 367.46 878.433 367.46H941.99C944.221 367.46 945.973 369.554 945.973 372.218V379.737C945.973 382.402 944.221 384.495 941.99 384.495Z" fill="#FCFCFC"/>
<path fill-rule="evenodd" clip-rule="evenodd" d="M948.523 463.581H878.514C876.284 463.581 874.532 461.488 874.532 458.823V451.304C874.532 448.64 876.284 446.546 878.514 446.546H948.523C950.753 446.546 952.505 448.64 952.505 451.304V458.823C952.505 461.392 950.674 463.581 948.523 463.581Z" fill="#FCFCFC"/>
<path fill-rule="evenodd" clip-rule="evenodd" d="M1011.2 437.219H898.185C895.955 437.219 894.203 435.126 894.203 432.461V424.942C894.203 422.278 895.955 420.184 898.185 420.184H1011.2C1013.43 420.184 1015.18 422.278 1015.18 424.942V432.461C1015.18 435.126 1013.43 437.219 1011.2 437.219Z" fill="#5965E0"/>
<path fill-rule="evenodd" clip-rule="evenodd" d="M1083.28 437.219H1025.94C1023.71 437.219 1021.96 435.126 1021.96 432.461V424.942C1021.96 422.278 1023.71 420.184 1025.94 420.184H1083.28C1085.51 420.184 1087.26 422.278 1087.26 424.942V432.461C1087.26 435.126 1085.51 437.219 1083.28 437.219Z" fill="#5965E0"/>
<path fill-rule="evenodd" clip-rule="evenodd" d="M1105.42 410.953H1102.96C1100.73 410.953 1098.97 408.859 1098.97 406.194V398.676C1098.97 396.011 1100.73 393.917 1102.96 393.917H1105.42C1107.65 393.917 1109.41 396.011 1109.41 398.676V406.194C1109.41 408.764 1107.65 410.953 1105.42 410.953Z" fill="#FCFCFC"/>
<path fill-rule="evenodd" clip-rule="evenodd" d="M1123.58 384.495H1121.11C1118.88 384.495 1117.13 382.402 1117.13 379.737V372.218C1117.13 369.554 1118.88 367.46 1121.11 367.46H1123.58C1125.81 367.46 1127.57 369.554 1127.57 372.218V379.737C1127.57 382.402 1125.81 384.495 1123.58 384.495Z" fill="#FCFCFC"/>
<path fill-rule="evenodd" clip-rule="evenodd" d="M995.592 410.857H878.433C876.203 410.857 874.45 408.764 874.45 406.099V398.58C874.45 395.916 876.203 393.822 878.433 393.822H995.592C997.822 393.822 999.575 395.916 999.575 398.58V406.099C999.575 408.764 997.822 410.857 995.592 410.857Z" fill="#FCFCFC"/>
<path fill-rule="evenodd" clip-rule="evenodd" d="M1032.55 384.495H954.017C951.787 384.495 950.035 382.402 950.035 379.737V372.218C950.035 369.554 951.787 367.46 954.017 367.46H1032.55C1034.78 367.46 1036.53 369.554 1036.53 372.218V379.737C1036.53 382.402 1034.7 384.495 1032.55 384.495Z" fill="#5965E0"/>
<path fill-rule="evenodd" clip-rule="evenodd" d="M1109.57 384.495H1046.01C1043.78 384.495 1042.03 382.402 1042.03 379.737V372.218C1042.03 369.554 1043.78 367.46 1046.01 367.46H1109.57C1111.8 367.46 1113.55 369.554 1113.55 372.218V379.737C1113.55 382.402 1111.8 384.495 1109.57 384.495Z" fill="#5965E0"/>
<path fill-rule="evenodd" clip-rule="evenodd" d="M956.406 358.99H953.937C951.707 358.99 949.955 356.896 949.955 354.231V346.713C949.955 344.048 951.707 341.954 953.937 341.954H956.406C958.636 341.954 960.389 344.048 960.389 346.713V354.231C960.389 356.801 958.636 358.99 956.406 358.99Z" fill="#5965E0"/>
<path fill-rule="evenodd" clip-rule="evenodd" d="M941.99 358.99H878.433C876.203 358.99 874.45 356.896 874.45 354.231V346.713C874.45 344.048 876.203 341.954 878.433 341.954H941.99C944.221 341.954 945.973 344.048 945.973 346.713V354.231C945.973 356.801 944.221 358.99 941.99 358.99Z" fill="#FCFCFC"/>
<path fill-rule="evenodd" clip-rule="evenodd" d="M1032.55 358.99H968.991C966.76 358.99 965.008 356.896 965.008 354.231V346.713C965.008 344.048 966.76 341.954 968.991 341.954H1032.55C1034.78 341.954 1036.53 344.048 1036.53 346.713V354.231C1036.53 356.801 1034.7 358.99 1032.55 358.99Z" fill="#FCFCFC"/>
<path fill-rule="evenodd" clip-rule="evenodd" d="M1089.42 410.952H1009.13C1006.9 410.952 1005.15 408.859 1005.15 406.194V398.58C1005.15 395.916 1006.9 393.822 1009.13 393.822H1089.42C1091.65 393.822 1093.4 395.916 1093.4 398.58V406.194C1093.4 408.764 1091.65 410.952 1089.42 410.952Z" fill="#5965E0"/>
<path fill-rule="evenodd" clip-rule="evenodd" d="M1188.31 696.184C1201.1 695.017 1212.21 706.483 1213.1 721.749C1214.08 737.033 1204.48 750.306 1191.64 751.371C1189.64 751.491 1188 751.442 1186.39 751.152C1185.08 750.919 1184.18 749.465 1184.38 747.905C1184.58 746.346 1185.79 745.272 1187.1 745.505C1188.35 745.73 1189.69 745.77 1191.36 745.671C1201.5 744.829 1209.11 734.308 1208.33 722.165C1207.63 710.04 1198.82 700.952 1188.69 701.876C1187.04 702.041 1185.39 702.452 1183.83 703.072C1182.58 703.571 1181.23 702.762 1180.81 701.266C1180.4 699.77 1181.07 698.153 1182.32 697.655C1184.24 696.893 1186.26 696.389 1188.31 696.184Z" fill="#FCFCFC"/>
<path fill-rule="evenodd" clip-rule="evenodd" d="M1101.84 658.089C1102.82 657.128 1104.25 657.256 1105.1 658.351L1105.2 658.487L1134.91 701.789C1135.75 703.009 1135.6 704.808 1134.58 705.807C1133.59 706.768 1132.17 706.641 1131.31 705.545L1131.21 705.409L1101.51 662.107C1100.67 660.888 1100.82 659.089 1101.84 658.089Z" fill="#FCFCFC"/>
<path fill-rule="evenodd" clip-rule="evenodd" d="M1098.97 690.18V771.836C1098.97 787.634 1109.65 800.387 1122.87 800.387H1163.17C1176.39 800.387 1187.06 787.634 1187.06 771.836V690.18H1098.97ZM1134.65 749.947C1135.21 750.423 1135.45 750.898 1135.45 751.66C1135.45 752.231 1135.29 752.611 1134.97 752.992C1134.65 753.373 1134.26 753.563 1133.86 753.563C1133.54 753.563 1133.3 753.468 1133.06 753.278L1117.13 741.857C1116.57 741.382 1116.26 740.81 1116.26 740.144C1116.26 739.478 1116.57 738.907 1117.13 738.431L1133.06 727.011C1133.3 726.821 1133.54 726.725 1133.86 726.725C1134.34 726.725 1134.65 726.916 1134.97 727.296C1135.29 727.677 1135.45 728.153 1135.45 728.629C1135.45 729.295 1135.21 729.866 1134.65 730.342L1120.96 740.144L1134.65 749.947ZM1154.57 721.777L1141.74 760.035C1141.66 760.225 1141.58 760.416 1141.42 760.606C1141.11 760.987 1140.71 761.177 1140.31 761.177C1139.83 761.177 1139.51 760.987 1139.19 760.606C1138.88 760.225 1138.72 759.749 1138.72 759.273C1138.72 758.988 1138.8 758.702 1138.88 758.417L1151.7 720.159C1151.78 719.968 1151.86 719.778 1152.02 719.588C1152.34 719.207 1152.73 719.017 1153.13 719.017C1153.61 719.017 1153.93 719.207 1154.25 719.588C1154.57 719.968 1154.73 720.444 1154.73 720.92C1154.73 721.301 1154.65 721.586 1154.57 721.777ZM1176.23 741.857L1160.3 753.278C1160.06 753.468 1159.82 753.563 1159.5 753.563C1159.03 753.563 1158.71 753.373 1158.39 752.992C1158.07 752.611 1157.91 752.136 1157.91 751.66C1157.91 750.994 1158.15 750.423 1158.71 749.947L1172.41 740.144L1158.71 730.342C1158.15 729.866 1157.91 729.39 1157.91 728.629C1157.91 728.058 1158.07 727.677 1158.39 727.296C1158.71 726.916 1159.11 726.725 1159.5 726.725C1159.82 726.725 1160.06 726.821 1160.3 727.011L1176.23 738.431C1176.79 738.907 1177.11 739.478 1177.11 740.144C1177.11 740.81 1176.87 741.477 1176.23 741.857Z" fill="#FCFCFC"/>
<path fill-rule="evenodd" clip-rule="evenodd" d="M193.009 696.182C194.555 696.066 195.936 696.092 197.217 696.296C198.525 696.505 199.444 697.941 199.269 699.504C199.095 701.067 197.893 702.165 196.585 701.956C195.648 701.807 194.566 701.787 193.323 701.879C183.204 702.719 175.639 713.214 176.346 725.386C177.051 737.51 185.856 746.599 196.002 745.673C197.318 745.552 198.466 746.73 198.567 748.302C198.667 749.874 197.682 751.246 196.366 751.366C183.576 752.534 172.468 741.067 171.579 725.781C170.69 710.476 180.23 697.242 193.009 696.182Z" fill="#FCFCFC"/>
<path fill-rule="evenodd" clip-rule="evenodd" d="M193.476 690.18V771.836C193.476 787.634 204.149 800.387 217.37 800.387H257.671C270.892 800.387 281.565 787.634 281.565 771.836V690.18H193.476ZM229.078 749.947C229.635 750.423 229.874 750.899 229.874 751.66C229.874 752.231 229.715 752.612 229.396 752.992C229.078 753.373 228.68 753.563 228.281 753.563C227.963 753.563 227.724 753.468 227.485 753.278L211.556 741.858C210.998 741.382 210.68 740.811 210.68 740.144C210.68 739.478 210.998 738.907 211.556 738.431L227.485 727.011C227.724 726.821 227.963 726.725 228.281 726.725C228.759 726.725 229.078 726.916 229.396 727.296C229.715 727.677 229.874 728.153 229.874 728.629C229.874 729.295 229.635 729.866 229.078 730.342L215.379 740.144L229.078 749.947ZM262.689 741.858L246.759 753.278C246.52 753.468 246.282 753.563 245.963 753.563C245.485 753.563 245.167 753.373 244.848 752.992C244.529 752.612 244.37 752.136 244.37 751.66C244.37 750.994 244.609 750.423 245.167 749.947L258.866 740.144L245.167 730.342C244.609 729.866 244.37 729.39 244.37 728.629C244.37 728.058 244.529 727.677 244.848 727.296C245.167 726.916 245.565 726.725 245.963 726.725C246.282 726.725 246.52 726.821 246.759 727.011L262.689 738.431C263.246 738.907 263.565 739.478 263.565 740.144C263.565 740.811 263.246 741.477 262.689 741.858Z" fill="#FCFCFC"/>
<path fill-rule="evenodd" clip-rule="evenodd" d="M329.153 631.15C330.265 630.416 331.654 630.853 332.325 632.119L332.4 632.269L343.311 655.871C343.949 657.251 343.53 658.988 342.375 659.751C341.263 660.485 339.874 660.048 339.202 658.782L339.128 658.632L328.217 635.03C327.579 633.65 327.998 631.913 329.153 631.15Z" fill="#FCFCFC"/>
<path fill-rule="evenodd" clip-rule="evenodd" d="M377.379 656.966C378.699 656.966 379.768 658.244 379.768 659.821C379.768 661.342 378.774 662.585 377.519 662.671L377.379 662.676H317.007C315.688 662.676 314.618 661.398 314.618 659.821C314.618 658.301 315.613 657.058 316.867 656.971L317.007 656.966H377.379Z" fill="#FCFCFC"/>
<path fill-rule="evenodd" clip-rule="evenodd" d="M369.016 736.718C368.14 735.671 367.025 735.1 365.671 735.1C364.397 735.1 363.282 735.671 362.326 736.718C361.45 737.765 360.972 739.097 360.972 740.715C360.972 742.238 361.45 743.57 362.326 744.713C363.202 745.759 364.317 746.33 365.671 746.33C366.945 746.33 368.06 745.759 369.016 744.713C369.892 743.666 370.37 742.333 370.37 740.715C370.37 739.097 369.972 737.765 369.016 736.718Z" fill="#FCFCFC"/>
<path fill-rule="evenodd" clip-rule="evenodd" d="M365.751 728.343C367.025 728.343 368.14 727.772 369.096 726.725C369.972 725.679 370.45 724.346 370.45 722.728C370.45 721.206 369.972 719.873 369.096 718.731C368.22 717.684 367.105 717.113 365.751 717.113C364.476 717.113 363.361 717.684 362.406 718.731C361.529 719.778 361.052 721.11 361.052 722.728C361.052 724.251 361.529 725.583 362.406 726.725C363.361 727.772 364.397 728.343 365.751 728.343Z" fill="#FCFCFC"/>
<path fill-rule="evenodd" clip-rule="evenodd" d="M369.016 762.509C369.892 761.462 370.37 760.13 370.37 758.512C370.37 756.989 369.892 755.657 369.016 754.515C368.14 753.468 367.025 752.897 365.671 752.897C364.397 752.897 363.282 753.468 362.326 754.515C361.45 755.562 360.972 756.894 360.972 758.512C360.972 760.035 361.45 761.367 362.326 762.509C363.202 763.556 364.317 764.127 365.671 764.127C367.025 764.127 368.14 763.556 369.016 762.509Z" fill="#FCFCFC"/>
<path fill-rule="evenodd" clip-rule="evenodd" d="M383.352 677.047L372.76 660.582H321.706L311.113 677.047C310.078 678.665 309.52 680.473 309.52 682.376V782.59C309.52 785.731 310.954 788.586 313.423 790.489C316.689 792.963 320.91 796.675 321.149 800.292H373.158C373.476 796.675 377.618 792.868 380.883 790.489C383.352 788.681 384.786 785.731 384.786 782.59V682.376C384.866 680.473 384.388 678.569 383.352 677.047ZM361.211 696.271L366.786 685.136C367.025 684.756 367.264 684.565 367.662 684.565C367.981 684.565 368.299 684.756 368.538 685.136L374.114 696.271C374.193 696.461 374.193 696.652 374.193 696.842C374.193 697.128 374.114 697.413 373.954 697.604C373.795 697.794 373.556 697.889 373.317 697.889C372.998 697.889 372.68 697.699 372.521 697.318L367.742 687.801L362.963 697.318C362.724 697.699 362.485 697.889 362.167 697.889C361.928 697.889 361.689 697.794 361.529 697.604C361.37 697.413 361.291 697.128 361.291 696.842C361.052 696.557 361.131 696.366 361.211 696.271ZM361.53 700.459C361.689 700.363 361.848 700.268 362.087 700.268C362.326 700.268 362.565 700.363 362.724 700.554C362.883 700.744 362.963 701.03 362.963 701.315C362.963 701.601 362.883 701.886 362.724 702.076C362.565 702.267 362.406 702.362 362.406 702.457C361.53 703.504 361.052 704.836 361.052 706.454C361.052 707.977 361.45 709.214 362.246 710.166C362.485 710.356 362.724 710.547 363.043 710.547C363.441 710.547 363.68 710.261 363.76 709.88L365.671 703.028C365.91 702.172 366.229 701.601 366.468 701.22C367.025 700.554 367.662 700.268 368.459 700.268C369.255 700.268 369.892 700.649 370.45 701.315C371.565 702.647 372.202 704.361 372.202 706.549C372.202 708.929 371.406 710.927 369.892 712.545C369.733 712.735 369.574 712.735 369.335 712.735C369.096 712.735 368.857 712.64 368.698 712.45C368.538 712.26 368.459 711.974 368.459 711.689C368.459 711.403 368.538 711.118 368.698 710.927C368.857 710.737 369.016 710.642 369.016 710.547C369.892 709.5 370.37 708.167 370.37 706.549C370.37 705.027 369.972 703.789 369.175 702.838C368.937 702.647 368.698 702.457 368.379 702.457C367.981 702.457 367.742 702.743 367.662 703.123L365.751 709.976C365.512 710.832 365.193 711.403 364.954 711.784C364.397 712.45 363.76 712.735 362.963 712.735C362.167 712.735 361.53 712.355 360.972 711.689C359.857 710.356 359.22 708.643 359.22 706.454C359.22 704.075 359.937 702.076 361.53 700.459ZM361.131 717.208C362.406 715.686 363.919 714.924 365.751 714.924C367.583 714.924 369.096 715.686 370.37 717.208C371.645 718.731 372.282 720.539 372.282 722.728C372.282 724.917 371.645 726.725 370.37 728.248C369.096 729.771 367.583 730.532 365.751 730.532C363.919 730.532 362.406 729.771 361.131 728.248C359.857 726.725 359.22 724.917 359.22 722.728C359.22 720.539 359.857 718.731 361.131 717.208ZM359.459 766.03C359.299 765.84 359.22 765.555 359.22 765.269C359.22 764.984 359.299 764.698 359.459 764.508C359.618 764.317 359.857 764.222 360.096 764.222H361.131C359.857 762.699 359.14 760.796 359.14 758.607C359.14 756.418 359.777 754.61 361.052 753.087C362.326 751.565 363.839 750.803 365.671 750.803C367.503 750.803 369.016 751.565 370.29 753.087C371.565 754.61 372.202 756.418 372.202 758.607C372.202 760.796 371.565 762.604 370.29 764.127C369.016 765.65 367.503 766.411 365.671 766.411H360.096C359.857 766.316 359.618 766.221 359.459 766.03ZM374.034 770.218L368.459 781.353C368.22 781.733 367.981 781.924 367.583 781.924C367.264 781.924 366.945 781.733 366.706 781.353L361.131 770.218C361.052 770.028 361.052 769.837 361.052 769.647C361.052 769.361 361.131 769.076 361.291 768.886C361.45 768.695 361.689 768.6 361.928 768.6C362.246 768.6 362.565 768.79 362.724 769.171L367.503 778.688L372.282 769.171C372.521 768.79 372.76 768.6 373.078 768.6C373.317 768.6 373.556 768.695 373.715 768.886C373.875 769.076 373.954 769.361 373.954 769.647C374.113 769.932 374.113 770.028 374.034 770.218ZM377.618 748.139C377.459 748.329 377.22 748.424 376.981 748.424H365.751C363.919 748.424 362.406 747.663 361.131 746.14C359.857 744.617 359.22 742.809 359.22 740.62C359.22 738.431 359.857 736.623 361.131 735.1C362.406 733.578 363.919 732.816 365.751 732.816C367.583 732.816 369.096 733.578 370.37 735.1C371.645 736.623 372.282 738.431 372.282 740.62C372.282 742.809 371.645 744.617 370.37 746.14C370.37 746.14 370.37 746.14 370.291 746.235H376.981C377.22 746.235 377.459 746.33 377.618 746.521C377.777 746.711 377.857 746.997 377.857 747.282C377.857 747.568 377.777 747.948 377.618 748.139Z" fill="#FCFCFC"/>
<path fill-rule="evenodd" clip-rule="evenodd" d="M574.548 334.782C578.018 329.129 584.227 330.63 590.558 338.448C596.721 346.073 600.682 356.189 602.872 367.179C603.178 368.713 602.385 370.253 601.101 370.618C599.817 370.983 598.529 370.036 598.223 368.502C596.215 358.422 592.603 349.197 587.122 342.417C582.564 336.788 579.672 336.089 578.401 338.159C576.853 340.681 577.058 346.419 579.35 351.918L579.493 352.254C582.818 359.942 583.749 375.082 583.263 393.815C583.222 395.391 582.12 396.629 580.801 396.58C579.482 396.532 578.446 395.214 578.487 393.638L578.533 391.641C578.869 375.106 577.962 361.459 575.354 355.127L575.249 354.878C572.068 347.537 571.73 339.372 574.548 334.782Z" fill="#FCFCFC"/>
<path fill-rule="evenodd" clip-rule="evenodd" d="M681.149 321.493C668.349 321.493 657.972 333.892 657.972 349.187C657.972 364.482 668.349 376.882 681.149 376.882C693.95 376.882 704.326 364.482 704.326 349.187C704.326 333.892 693.95 321.493 681.149 321.493ZM681.149 327.203C691.31 327.203 699.548 337.046 699.548 349.187C699.548 361.329 691.31 371.171 681.149 371.171C670.988 371.171 662.751 361.329 662.751 349.187C662.751 337.046 670.988 327.203 681.149 327.203Z" fill="#FCFCFC"/>
<path fill-rule="evenodd" clip-rule="evenodd" d="M557.095 440.044C558.101 439.176 559.487 439.376 560.293 440.478L560.726 441.13C561.016 441.565 561.359 442.072 561.754 442.645C562.888 444.288 564.203 446.122 565.684 448.099C569.919 453.752 574.623 459.405 579.664 464.674C591.773 477.331 603.828 485.718 615.027 487.886C615.95 488.065 616.702 488.871 616.949 489.95L617.001 490.194C617.082 490.603 617.175 491.203 617.263 491.998C617.731 496.214 617.655 502.023 616.693 509.522L616.606 510.188C616.109 513.913 616.866 516.525 619.379 521.129L620.635 523.398C622.461 526.729 623.362 528.769 624.035 531.477C625.005 535.375 624.97 539.499 623.788 544.134L623.773 544.22C623.486 546.127 621.113 573.694 619.98 585.546L619.876 586.62C616.866 617.56 613.253 646.439 608.591 673.791C602.445 709.851 594.992 739.886 585.976 762.311C575.108 789.344 562.19 804.714 546.805 806.089C545.489 806.207 544.343 805.027 544.244 803.455C544.146 801.882 545.133 800.512 546.449 800.395C559.574 799.222 571.229 785.5 581.362 760.597L581.669 759.839C590.483 737.914 597.835 708.29 603.909 672.652C608.414 646.215 611.938 618.305 614.885 588.453L615.325 583.905C616.427 572.191 618.82 544.478 619.197 542.555L619.209 542.502C620.822 536.174 620.006 532.648 616.432 526.153L615.595 524.646C612.319 518.725 611.142 514.873 611.887 509.289C612.804 502.419 612.932 497.161 612.593 493.413L612.567 493.153L612.126 493.045C600.702 490.15 588.871 481.761 577.071 469.547L576.518 468.972C571.319 463.538 566.48 457.723 562.124 451.908C560.875 450.242 559.74 448.671 558.725 447.224L558.101 446.326L557.018 447.361C554.932 449.369 552.271 452.014 548.976 455.378C546.874 457.524 544.58 458.662 541.988 459.014L541.595 459.062C539.981 459.242 538.605 459.139 535.847 458.758L535.509 458.711C528.997 457.797 526.313 458.417 522.801 463.122L522.619 463.369C520.362 466.446 508.829 488.523 491.226 523.184L485.652 534.181L483.373 538.686C478.025 549.266 472.471 560.295 466.875 571.443L453.186 598.775L449.68 605.798C449.004 607.153 447.538 607.597 446.404 606.79C445.312 606.013 444.927 604.359 445.503 603.028L449.523 594.966L456.769 580.485C463.981 566.092 471.217 551.698 478.133 538.009L486.652 521.185C504.933 485.172 516.463 463.099 519.022 459.61C521.721 455.916 524.637 453.824 527.914 453.016C530.088 452.479 531.813 452.488 534.962 452.891L536.722 453.129C541.615 453.769 543.534 453.423 545.871 451.037L547.871 449.005C550.301 446.548 552.341 444.531 554.023 442.911L555.273 441.719C555.577 441.432 555.855 441.172 556.107 440.939L556.932 440.188C557.001 440.126 557.055 440.079 557.095 440.044Z" fill="#FCFCFC"/>
<path fill-rule="evenodd" clip-rule="evenodd" d="M616.716 509.358C618.707 495.178 619.503 489.087 619.503 489.087C589.079 483.472 557.778 437.79 557.778 437.79C557.778 437.79 554.671 440.55 545.91 449.591C542.406 453.208 538.742 453.208 534.919 452.732C532.211 492.418 591.866 527.726 620.061 529.439C618.309 519.922 615.203 520.112 616.716 509.358Z" fill="#FCFCFC"/>
<path fill-rule="evenodd" clip-rule="evenodd" d="M443.577 557.962C452.499 556.612 460.356 559.086 466.622 566.087C467.586 567.164 467.636 568.971 466.735 570.123C465.834 571.275 464.322 571.335 463.358 570.258C458.209 564.505 451.772 562.478 444.177 563.627C437.284 564.67 429.792 568.269 422.196 573.63C418.957 575.915 415.921 578.368 413.178 580.818L412.48 581.448C412.028 581.859 411.603 582.254 411.207 582.629L410.635 583.176C410.432 583.373 410.249 583.552 410.089 583.711L409.763 584.039C408.763 585.069 407.255 584.936 406.393 583.742C405.531 582.548 405.642 580.745 406.642 579.715L406.972 579.382C407.111 579.243 407.28 579.077 407.476 578.886L408.236 578.157C408.865 577.561 409.56 576.921 410.316 576.245C413.19 573.677 416.368 571.111 419.766 568.713C427.874 562.991 435.936 559.118 443.577 557.962Z" fill="#FCFCFC"/>
<path fill-rule="evenodd" clip-rule="evenodd" d="M643.034 335.779L642.824 335.808C639.62 336.358 630.801 342.353 618.375 351.925L615.832 353.895C604.536 362.695 593.426 372.034 589.739 375.871L589.538 376.089C586.234 379.803 578.782 394.44 567.871 417.818L567.185 419.29C566.545 420.663 565.897 422.06 565.241 423.478L563.309 427.667C559.746 435.413 556.08 443.503 552.431 451.646L549.262 458.739C548.104 461.34 547.014 463.798 546.004 466.082L543.873 470.917C543.28 472.271 543.684 473.943 544.79 474.711L605.003 516.49L605.133 516.574C606.356 517.309 607.862 516.662 608.403 515.133L637.898 431.78L638.304 431.771C650.765 431.431 659.098 427.487 662.86 421.131C666.48 415.015 664.741 407.187 659.355 406.679L659.212 406.666C658.511 406.611 657.58 406.61 656.431 406.661L655.699 406.697L655.787 406.663C663.023 403.792 667.377 399.421 668.757 394.095C670.315 388.083 667.359 381.788 662.9 381.455L662.796 381.447C661.733 381.375 659.796 381.636 657.042 382.198L656.608 382.287L656.768 382.185C660.74 379.583 663.352 375.671 664.195 371.26C665.265 365.658 663.143 360.348 658.82 358.989L658.688 358.951C656.2 358.303 649.662 359.836 640.663 362.848L639.701 363.172L640.138 362.87C642.947 360.918 645.343 359.171 647.26 357.663C652.501 353.54 654.3 347.945 652.465 342.798C650.897 338.4 646.88 335.385 643.034 335.779ZM648.068 345.036C648.934 347.465 648.055 350.201 644.632 352.893L644.001 353.385C641.73 355.137 638.8 357.227 635.336 359.582L633.604 360.752C633.187 361.033 632.763 361.315 632.335 361.601C628.979 363.835 625.408 366.143 621.812 368.419L619.419 369.926L615.649 372.271L615.07 372.627C612.425 374.244 614.132 379.027 616.939 377.867L618.711 377.138C637.745 369.353 654.916 363.676 657.61 364.513C659.21 365.016 660.073 367.176 659.536 369.989C658.86 373.524 656.227 376.771 651.906 378.511L651.516 378.665L619.1 392.465C616.286 393.663 617.498 398.642 620.342 397.961L620.599 397.889L625.104 396.558L626.225 396.23C630.582 394.96 635.038 393.689 639.332 392.504L641.215 391.987L643.89 391.263C653.935 388.57 660.941 387 662.565 387.151C663.737 387.239 664.893 389.701 664.192 392.406C663.06 396.774 658.052 400.786 648.573 403.001L645.393 403.727C628.614 407.609 622.626 410.159 621.7 412.648C620.957 414.646 622.29 416.837 624.081 416.653L628.396 415.962C631.599 415.456 634.926 414.95 638.205 414.477L639.889 414.238L643.653 413.721C651.406 412.691 656.935 412.178 658.979 412.371C660.126 412.479 660.672 414.938 658.958 417.833C656.044 422.758 648.482 426.124 636.315 426.084L636.156 426.09C635.258 426.159 634.462 426.827 634.108 427.828L605.057 509.924L549.17 471.146L553.098 462.281C553.606 461.142 554.126 459.973 554.66 458.778L556.643 454.342C560.947 444.739 565.274 435.211 569.424 426.24L571.36 422.067L573.304 417.907C583.278 396.65 590.427 382.727 592.878 380.177C601.579 371.121 639.236 341.899 643.442 341.468C645.192 341.289 647.295 342.868 648.068 345.036Z" fill="#FCFCFC"/>
<path fill-rule="evenodd" clip-rule="evenodd" d="M509.967 696.184C522.758 695.017 533.866 706.483 534.753 721.749C535.73 737.033 526.134 750.306 513.32 751.369C510.266 751.59 507.369 751.215 504.774 750.181C503.522 749.682 502.846 748.065 503.263 746.57C503.68 745.074 505.033 744.265 506.285 744.764C508.263 745.552 510.555 745.849 513.01 745.671C523.157 744.829 530.763 734.308 529.987 722.165C529.282 710.04 520.478 700.952 510.32 701.879C509.316 701.965 508.311 702.136 507.305 702.394C506.014 702.724 504.744 701.742 504.468 700.2C504.191 698.658 505.013 697.141 506.303 696.81C507.527 696.497 508.752 696.288 509.967 696.184Z" fill="#FCFCFC"/>
<path fill-rule="evenodd" clip-rule="evenodd" d="M420.707 690.18V771.836C420.707 787.634 431.379 800.387 444.6 800.387H484.901C498.123 800.387 508.795 787.634 508.795 771.836V690.18H420.707ZM456.308 749.947C456.866 750.423 457.105 750.899 457.105 751.66C457.105 752.231 456.946 752.612 456.627 752.992C456.308 753.373 455.91 753.563 455.512 753.563C455.193 753.563 454.954 753.468 454.715 753.278L438.786 741.858C438.229 741.382 437.91 740.811 437.91 740.144C437.91 739.478 438.229 738.907 438.786 738.431L454.715 727.011C454.954 726.821 455.193 726.725 455.512 726.725C455.99 726.725 456.308 726.916 456.627 727.296C456.946 727.677 457.105 728.153 457.105 728.629C457.105 729.295 456.866 729.866 456.308 730.342L442.609 740.144L456.308 749.947ZM476.22 721.777L463.397 760.035C463.317 760.225 463.238 760.416 463.078 760.606C462.76 760.987 462.362 761.177 461.963 761.177C461.485 761.177 461.167 760.987 460.848 760.606C460.53 760.225 460.37 759.749 460.37 759.274C460.37 758.988 460.45 758.703 460.53 758.417L473.353 720.159C473.432 719.968 473.512 719.778 473.671 719.588C473.99 719.207 474.388 719.017 474.786 719.017C475.264 719.017 475.583 719.207 475.901 719.588C476.22 719.968 476.379 720.444 476.379 720.92C476.379 721.301 476.3 721.586 476.22 721.777ZM497.884 741.858L481.954 753.278C481.715 753.468 481.477 753.563 481.158 753.563C480.68 753.563 480.362 753.373 480.043 752.992C479.724 752.612 479.565 752.136 479.565 751.66C479.565 750.994 479.804 750.423 480.362 749.947L494.061 740.144L480.362 730.342C479.804 729.866 479.565 729.39 479.565 728.629C479.565 728.058 479.724 727.677 480.043 727.296C480.362 726.916 480.76 726.725 481.158 726.725C481.477 726.725 481.715 726.821 481.954 727.011L497.884 738.431C498.441 738.907 498.76 739.478 498.76 740.144C498.839 740.811 498.521 741.477 497.884 741.858Z" fill="#FCFCFC"/>
<path fill-rule="evenodd" clip-rule="evenodd" d="M1306.61 799.911C1307.93 799.911 1309 801.189 1309 802.766C1309 804.287 1308.01 805.53 1306.75 805.616L1306.61 805.621H3.28117C1.96155 805.621 0.891785 804.343 0.891785 802.766C0.891785 801.246 1.8865 800.003 3.14077 799.916L3.28117 799.911H1306.61Z" fill="#FCFCFC"/>
<path fill-rule="evenodd" clip-rule="evenodd" d="M680.831 397.343L676.45 315.878L588.521 322.635L591.547 377.738C599.353 369.744 637.742 339.099 643.317 338.528C648.893 337.957 655.583 347.665 646.025 355.183C636.468 362.701 616.238 375.073 616.238 375.073C633.043 368.031 654.309 360.417 658.291 361.655C664.344 363.558 663.946 376.882 652.397 381.26L619.981 395.059C619.981 395.059 657.733 383.734 662.831 384.21C667.928 384.686 672.388 400.484 648.654 405.813C624.919 411.238 623.963 413.712 623.963 413.712C623.963 413.712 653.194 408.764 659.247 409.43C665.3 410.096 665.459 428.939 636.388 428.844L636.229 429.32L658.61 427.607C671.672 426.655 681.707 413.046 680.831 397.343Z" fill="#FCFCFC"/>
</svg>
